<?xml version="1.0" encoding="UTF-8" standalone="no"?>
<!-- Created with Inkscape (http://www.inkscape.org/) -->

<svg
   width="100mm"
   height="100mm"
   viewBox="0 0 100 100"
   version="1.1"
   id="svg5"
   inkscape:version="1.1 (c68e22c387, 2021-05-23)"
   sodipodi:docname="favicon4.svg"
   xmlns:inkscape="http://www.inkscape.org/namespaces/inkscape"
   xmlns:sodipodi="http://sodipodi.sourceforge.net/DTD/sodipodi-0.dtd"
   xmlns="http://www.w3.org/2000/svg"
   xmlns:svg="http://www.w3.org/2000/svg">
  <sodipodi:namedview
     id="namedview7"
     pagecolor="#ffffff"
     bordercolor="#cccccc"
     borderopacity="1"
     inkscape:pageshadow="0"
     inkscape:pageopacity="1"
     inkscape:pagecheckerboard="0"
     inkscape:document-units="mm"
     showgrid="false"
     inkscape:snap-global="false"
     inkscape:zoom="0.67081229"
     inkscape:cx="567.22276"
     inkscape:cy="403.24246"
     inkscape:window-width="2560"
     inkscape:window-height="1377"
     inkscape:window-x="-8"
     inkscape:window-y="-8"
     inkscape:window-maximized="1"
     inkscape:current-layer="layer1" />
  <defs
     id="defs2" />
  <g
     inkscape:label="Calque 1"
     inkscape:groupmode="layer"
     id="layer1">
    <g
       id="g1016"
       transform="matrix(-0.92869555,0,0,0.92870209,168.28046,-16.19212)">
      <path
         id="path1034"
         style="fill:#989c96;stroke-width:0.999999"
         d="m 233.66016,82.294922 c -9.83211,12.994881 -4.63239,36.300078 -17.4043,48.724608 0.0529,14.88584 -6.58015,26.54785 -21.01953,29.70508 8.30215,6.56413 28.41805,15.5892 21.45117,32.4668 12.70942,-2.43724 -1.18077,35.3227 -0.89258,10.6914 -4.66639,-10.38784 -2.86425,22.42707 5.07813,24.43555 3.79098,24.67525 -3.60515,49.41504 -5.02149,74.06641 -1.42836,24.53847 -8.50979,47.77768 -11.06445,71.88281 1.04099,31.09328 -9.34266,60.91043 -19.12109,89.9668 -0.0607,0.41718 -0.12156,0.89584 -0.1836,1.32421 v 23.70508 h 204.79102 c 5.15285,-18.84488 17.23848,-37.01633 4.5664,-55.75195 4.54897,-8.82894 30.75837,-8.16671 18.2168,-22.03516 16.16205,-16.50867 10.09953,33.69918 18.60547,14.13672 2.38598,-15.15503 27.49869,-32.29071 6.75781,-41.72851 -1.80502,-20.1148 33.39724,-14.51172 48.56641,-13.83399 28.12358,-0.66788 56.13391,-4.9444 84.28125,-5.75 29.04487,-0.58462 24.11646,-37.96045 9.61523,-53.01953 -12.50288,-18.85015 -8.53244,-43.87818 -30.97851,-57.11133 -15.57265,-16.6086 -12.15833,-44.27495 -35.62696,-55.3164 -18.40442,-15.6428 -38.1564,-32.35571 -61.98046,-38.8086 -8.38734,-0.75611 -38.91225,8.44179 -23.88477,-9.28125 -21.18342,-6.45875 0.40653,-37.22897 -0.75586,-52.728514 C 425.49502,90.575785 421.33809,85.620576 416,82.294922 Z m -17.41993,71.607418 c 6.41015,-0.0446 12.41779,4.16889 5.24219,12.60938 -2.74208,6.82293 -11.62315,1.37858 -14.37109,-2.52734 -2.49612,-6.6891 3.47289,-10.04267 9.1289,-10.08204 z"
         transform="matrix(-0.26458333,0,0,0.26458333,230.2761,-4.3386454)" />
      <path
         id="path1032"
         style="fill:#878678;stroke-width:0.999999"
         d="m 237.24805,82.294922 c -7.72637,6.480429 -12.34599,16.308409 -11.3086,29.437498 -4.22041,14.88917 -16.99688,34.61287 -0.57226,44.17188 8.60409,20.07688 -32.22523,7.28605 -13.74024,14.51758 21.74559,17.91055 1.83417,45.14446 12.04297,66.12304 -1.25888,34.54669 -8.39682,68.53566 -10.9082,103.04102 -10.87521,28.22556 -4.6684,59.49178 -14.14844,88.17383 -4.95247,14.99446 -11.27482,29.38883 -13.13086,44.83984 v 16.66406 h 203.77149 c 4.34902,-18.31485 16.81424,-35.52284 5.75195,-54.33789 0.78195,-11.72266 0.88942,-34.43287 7.56055,-11.60547 10.64757,9.82367 14.81909,-9.41527 11.15234,-16.67578 17.15289,-10.33568 4.24861,14.96424 19.61719,11.48828 5.36009,-14.32819 20.62896,-25.28447 3.40429,-35.36523 1.60411,-19.90618 32.67575,-13.81829 48.10938,-14.37305 26.45122,1.83554 52.92133,-5.2014 79.5,-3.93359 24.74836,2.50141 34.18592,-25.21706 21.30078,-43.07032 -5.22399,-11.07175 -20.49844,-7.91453 -11.77734,-21.34765 -1.11891,-22.549 -29.23849,-27.95419 -45.88867,-24.69141 -8.42527,0.37168 15.53526,-23.37345 -4.25782,-23.71094 -8.85349,6.97221 -33.91038,-9.26613 -14.17187,5.15235 -13.54031,0.98313 10.303,15.04217 15.58398,5.79297 -11.28076,19.72685 -28.25271,-5.9602 -43.52539,4.17383 -22.75241,-3.67174 -45.63836,-2.99917 -68.45117,0.10546 -9.65658,0.9978 -37.98992,4.90782 -33.32617,-9.22461 10.95073,13.5176 2.74793,-2.81776 7.92187,-7.97851 22.0255,-3.97711 41.609,-22.02717 65.72461,-18.74023 19.65317,-2.65435 38.6765,2.87175 57.69531,5.89062 11.48606,2.22082 36.45429,16.38033 26.09571,-5.87109 -2.91615,-26.24134 -31.82764,-18.98273 -45.80664,-29.98243 5.0468,-1.50015 23.86969,1.88871 11.02929,-9.42187 -14.62552,-7.77046 -30.26798,-27.13624 -46.01171,-25.02149 -2.9839,6.16262 -5.28909,7.48366 4.5664,10.86133 19.46064,9.09606 -28.35754,14.32575 -23.01367,4.59375 -16.86773,8.41587 8.82528,-16.22602 9.10156,-1.625 13.74157,-20.46231 -22.59447,1.86339 -27.05469,-11.02539 13.77264,-0.90227 -1.63493,-11.68908 5.08594,-18.44922 -13.5408,6.17418 -3.50495,-25.10366 -2.94531,-34.88281 7.15846,-14.41983 2.60663,-26.209341 -6.90234,-33.693358 z M 455.93164,190.40625 c 8.39041,-0.0349 16.9157,1.60014 24.35352,4.04687 5.94716,3.09037 -8.09005,13.71634 -8.47461,6.76368 2.36075,-7.91272 -5.86678,-2.82876 -6.46289,-1.00391 -13.06974,-5.69305 -28.84847,-0.97965 -38.50196,0.43359 7.73538,-7.3908 18.29827,-10.19541 29.08594,-10.24023 z m -7.18359,25.45117 c 13.64831,-0.0143 30.98218,3.97567 25.95507,10.12305 -4.20744,-0.25867 -8.37279,-0.95549 -12.58398,-1.16992 -7.91131,-5.66141 -48.12836,6.3951 -24.82617,-7.53516 2.76607,-0.96333 6.90564,-1.4132 11.45508,-1.41797 z m 54.25,7.86524 c 1.23075,-2.1e-4 2.65666,0.0277 4.29883,0.0859 5.39485,0.0644 31.43187,11.88325 12.79492,6.78907 -9.74356,-0.68629 -35.555,-6.87185 -17.09375,-6.875 z m -245.97266,11.31836 c 4.36241,0.45129 1.28217,13.52471 -8.58008,7.1875 4.02527,-5.60813 6.87305,-7.3641 8.58008,-7.1875 z m 152.9043,17.96484 c -6.75559,0.16148 -22.73873,8.34184 -0.92383,6.44922 5.15845,-4.93946 3.99455,-6.52262 0.92383,-6.44922 z m 30.4375,34.33594 c 6.65333,-0.14022 15.24035,8.37086 2.58593,5.80664 0.10432,3.85199 -5.81006,5.49666 -7.87304,2.37109 2.8117,-4.53122 -14.88097,-3.41071 0.66211,-5.5918 1.05108,-1.8289 2.76207,-2.54667 4.625,-2.58593 z m 29.89648,4.625 c 12.72083,3.63483 44.85501,-2.45111 46.53516,6.51562 -5.73601,0.34968 -11.42339,-0.83422 -17.15625,-0.70898 -7.52206,2.63337 -36.66822,-0.3435 -29.37891,-5.80664 z m 72.25195,6.78711 c 9.89583,-0.47736 28.96627,6.40466 10.44922,4.78125 -5.70036,-0.0675 -11.63543,6.33053 -17.15429,2.60742 13.00948,-2.07351 -13.85121,-7.7877 3.16211,-6.6875 0.90288,-0.41478 2.12928,-0.63298 3.54296,-0.70117 z"
         transform="matrix(-0.26458333,0,0,0.26458333,230.2761,-4.3386454)" />
      <path
         id="path1030"
         style="fill:#7c8278;stroke-width:0.264583"
         d="m 168.10263,17.435217 c 0.3558,0.531936 0.64138,1.183537 0.83871,1.986442 0.24833,6.193073 5.60646,11.602003 2.5523,17.762222 -0.84056,3.544552 2.2325,5.065895 -0.108,8.425844 1.12089,6.405237 -0.8859,12.387739 0.005,18.743041 0.0846,6.40239 2.29631,12.480197 2.21795,18.889803 1.40116,6.350055 2.56697,12.698579 2.69441,19.259291 1.00542,5.55098 2.46187,11.04368 4.89789,16.16542 v 6.44509 H 156.0734 c -0.25137,-0.2608 -0.55296,-0.21377 -0.80667,0 h -28.03809 c -1.32959,-5.17885 -3.91583,-10.02957 -1.49655,-15.40423 -0.58814,-2.73985 0.4003,-7.39032 -1.98334,-2.60863 -3.28678,3.06159 -3.70293,-1.73601 -2.91972,-3.82612 -3.61536,-3.05551 -2.20448,3.42444 -4.74648,2.94763 -2.29294,-3.54116 -5.70721,-6.911549 -0.96996,-9.500203 -2.3062,-5.559748 -10.92747,-3.40328 -15.738577,-3.366204 -3.884191,-0.249431 -8.110873,-0.892681 -12.477273,-1.191141 -3.993732,-0.463561 -9.102781,0.376137 -12.195638,-2.344044 -2.839985,-5.825464 2.361769,-12.368602 8.427908,-12.482441 3.81119,0.473376 7.094706,-0.612085 9.410795,-2.194698 4.209679,1.449922 8.236675,-0.454797 12.498975,0.772562 4.18346,-2.383634 10.16241,-1.218596 14.92571,-1.335836 2.81141,-0.183462 0.12351,-3.303661 -0.13488,-3.35535 -3.95982,0.278103 -7.6744,-1.842815 -10.23607,2.082559 -1.06169,-2.061054 -8.87535,-2.751529 -7.98607,-1.675866 3.46657,-0.374745 5.28689,1.371142 0.78341,1.083654 -6.596266,0.179951 -13.068832,1.844164 -19.604485,2.456183 -7.488248,3.524308 -2.848996,-7.566073 2.364714,-5.831171 5.595858,-0.08839 10.808528,-2.388211 16.429491,-2.424657 8.59057,-1.502008 17.30442,-0.836459 25.90333,0.12764 5.9015,0.335976 3.27998,-5.095026 -0.94878,-5.365562 -5.46243,-3.019168 -11.42754,-5.5094 -17.79892,-5.031735 -6.86132,-1.865421 5.53883,-1.759344 7.67964,-0.521933 4.55407,-0.427495 -4.43025,-6.891887 -6.18619,-3.350183 -2.36937,0.329465 -8.93571,0.775729 -5.97535,3.800285 -5.348314,0.503277 -10.454577,2.037778 -15.637283,3.420464 -2.865024,-2.7892 3.546695,-11.610202 8.890932,-9.303308 4.010351,-2.520606 7.859391,-0.433266 12.062311,-1.479497 -0.33171,4.812641 2.00179,-4.679453 3.21169,-0.240295 2.98479,2.142117 7.84977,-0.996727 1.94717,-1.963705 -4.7561,-1.889501 -9.84636,-1.196663 -14.32212,1.110011 -3.446239,2.074805 -5.735303,-1.072838 -1.672255,-2.721282 3.813845,-1.086627 7.112495,-6.550644 10.550265,-5.633249 1.85038,2.479675 -3.58641,3.215005 -3.34295,4.433322 3.68143,1.218805 8.5979,1.788993 10.85463,-0.05323 -4.3521,-3.553258 1.03484,-1.503759 2.89957,-3.209623 -1.78104,-1.002998 -2.40922,-1.517295 -1.27589,-3.994586 -2.58013,-1.703981 2.44117,-0.737852 1.22318,-4.005443 0.10592,-4.979164 -3.24883,-11.289226 0.0806,-15.497244 z m -9.07024,28.271142 c -0.83982,0.03279 -1.43135,0.348994 -0.66456,0.817523 1.46482,0.06754 -0.0278,4.623477 1.79937,1.989542 2.35499,-2.128663 0.26489,-2.861712 -1.13481,-2.807065 z m -1.80041,4.004408 c -0.8008,-0.04939 -1.72046,0.272545 -1.93167,1.449522 0.35009,0.348274 0.87099,-0.167933 1.11208,-0.348297 3.15809,0.09491 2.15425,-1.018913 0.81959,-1.101225 z m 12.8912,0.210323 c -0.3505,0.025 -0.58617,0.747455 -0.22789,2.503207 -0.13629,0.625443 0.49678,2.32375 1.00407,0.813387 0.49361,-1.899023 -0.2639,-3.353136 -0.77618,-3.316594 z m -70.151269,4.604887 c -3.144721,-0.04878 -9.297704,0.747673 -8.698177,2.881993 l 0.302305,-0.09819 0.165883,-0.05374 c 2.442771,-1.718024 8.020955,0.127162 8.815998,-2.708881 -0.18001,-0.01062 -0.37636,-0.01793 -0.586009,-0.02119 z m 57.943229,0.0026 c -0.81164,-0.0024 -1.53093,0.05274 -1.98437,0.07596 0.66186,5.253072 -7.65371,6.530787 -6.7014,10.604005 0.32135,1.391243 0.19664,2.900863 2.0531,1.086236 1.81324,-2.858894 2.55544,-4.577876 4.89686,-6.586677 -1.17512,-4.446847 6.23205,-3.738346 4.59559,-0.342098 1.23011,1.499023 5.89761,0.125719 2.24999,-0.816486 0.59094,-3.485491 -2.67484,-4.013769 -5.10977,-4.020944 z m -66.592831,7.642944 c 0.933018,-0.03951 2.602433,3.376591 -0.430983,2.1208 -0.186182,-1.560584 0.06589,-2.105338 0.430983,-2.1208 z m 65.948431,2.115632 c -1.48857,-0.04248 -2.95361,0.723392 -0.16744,1.368394 0.19484,0.442441 1.17112,1.586645 1.69448,0.634587 0.80274,-1.447888 -0.36927,-1.96994 -1.52704,-2.002981 z m -43.40975,12.280905 c -1.38287,-0.09298 -6.83611,1.415016 -1.69086,0.873848 0.39122,-0.0374 0.78235,-0.07474 1.17357,-0.112136 0.98688,-0.52206 0.97824,-0.730718 0.51729,-0.761712 z m 4.84776,0.04909 c -1.43444,-0.04255 -3.35524,0.454713 -4.17235,1.715656 -6.03542,-0.496192 3.31269,2.349672 3.9119,0.652674 3.14469,-1.366194 2.10473,-2.313633 0.26045,-2.36833 z m 9.67641,0.413411 c -0.94927,-0.02314 -1.77456,0.36856 -1.76527,1.629873 0.7751,0.174263 1.53781,-0.107667 2.27325,-0.299722 4.2702,0.778975 1.58042,-1.279242 -0.50798,-1.330151 z" />
      <path
         id="path1028"
         style="fill:#827c6b;stroke-width:0.999999"
         d="m 234.96484,82.294922 c -3.88845,4.16712 -5.90614,10.252603 -4.76172,19.005858 -9.55128,19.80887 -14.69845,40.21951 -6.20117,60.16797 -12.17242,18.08852 2.87966,36.30041 -2.46289,56.67773 3.25467,22.72546 1.30461,45.30015 -1.34375,68.13282 -7.228,23.19636 -2.73116,48.58892 -12.06054,71.06054 -2.62568,21.0901 -2.96056,45.28796 -7.92969,66.50782 -4.46166,18.85617 -16.24426,36.2987 -13.50977,54.77734 -0.4408,0.68292 -0.8431,1.35395 -1.21289,2.01562 v 8.62305 h 94.92383 c 0.88974,-0.88064 2.08391,-0.7252 3.1543,0 h 16.91211 c -0.048,-0.52276 -0.12427,-1.05383 -0.22657,-1.59179 0.44779,0.73421 1.00389,1.25833 1.61719,1.59179 h 3.92383 c 2.55912,-1.25642 3.67138,-4.78009 -2.12695,-7.58398 8.27054,-0.96838 24.67929,0.92501 20.20117,7.58398 h 65.28906 c 4.16933,-18.26287 16.0852,-35.29733 5.85352,-54.10156 -0.20599,-11.4878 1.51311,-34.8365 8.24218,-12.13477 10.43592,8.69193 13.13194,-10.10436 9.5,-15.59375 8.35964,-7.42412 13.25995,-2.048 14.40235,10.16407 9.00688,2.96659 14.4131,-19.39382 17.33789,-22.43555 -0.0378,-7.02959 -18.97007,-18.65363 -0.70313,-23.25781 19.86233,-9.37604 41.52662,-0.13645 61.14649,-4.17383 13.86123,0.8458 31.06111,-5.12844 46.61523,-3.61328 15.68776,-0.92911 42.29822,1.69859 39.04492,-21.83789 0.78007,-24.88364 -26.53979,-36.3215 -47.76757,-33.95313 -15.4826,1.34559 -19.23855,-14.35034 -35.70508,-4.64062 -17.41611,-4.90834 -32.85247,1.93716 -49.83203,-5.29883 -13.37764,-3.72045 -41.26423,5.78829 -45.01954,-6.02149 3.79609,-7.2146 4.47978,-7.74075 18.13086,-6.81445 11.41338,-6.78223 18.56793,4.14929 26.85938,7.12891 3.46416,-9.96617 47.51182,-7.05275 19.63476,-4.85938 -14.73418,4.53367 18.57826,2.99003 23.55665,4.47657 23.49666,4.69422 47.7603,5.51451 70.68359,11.04687 7.39432,-26.54222 -31.079,-25.10923 -48.35156,-26.99805 -41.42289,-11.65568 -85.28681,-11.53072 -127.82422,-7.11132 -19.42897,6.13076 -27.59768,-13.19241 -6.92578,-18.97852 10.2819,-5.31867 31.45471,-10.30747 33.97656,-18.32813 -10.06723,-0.91758 25.66556,-20.84845 2.74023,-30.20312 5.42064,-9.43613 22.84483,-11.14888 2.94532,-12.93555 -15.04184,-5.45386 -11.83067,-18.95954 -3.47852,-26.27929 -2.10278,-8.09929 5.36715,-10.35053 -6.48828,-10.91602 0.60793,-22.58219 5.46578,-46.21404 3.09766,-69.298828 z m 37.45899,103.855468 c 8.85271,0.3945 11.08692,10.87756 -0.73047,10.80273 1.43558,21.29061 25.21832,-12.95897 16.90234,7.25782 -1.63566,12.04244 0.076,17.95573 -9.68554,6.07812 -3.77704,3.85893 9.17268,20.25398 10.64257,28.86133 18.80909,0.0866 30.79918,39.23726 7.7461,31.82031 2.21469,4.98614 8.34702,18.91908 -3.53906,12.69532 -0.59581,-18.49886 0.43453,-34.02472 -19.24415,-36.39844 4.38792,-22.65495 -26.94935,13.0119 -30.58007,-11.75781 -5.70093,-13.1607 34.32493,-10.31563 15.26172,-23.98829 17.85316,-7.13686 -11.8008,-26.34372 11.36914,-25.30859 0.6468,-0.0695 1.26724,-0.0888 1.85742,-0.0625 z m -44.63281,15.9668 c 1.03351,0.15163 1.63489,2.9716 0.68554,9.95898 0.82058,2.69479 -0.83271,11.58944 -4.25976,4.60352 -1.06987,-7.65245 1.8517,-14.81523 3.57422,-14.5625 z m 217.2539,0.38672 c -2.21401,-0.0939 -5.00555,0.47549 -8.21484,2.11523 -10.01484,0.72867 -1.2815,5.28883 2.38086,5.73438 14.26547,1.28145 13.74118,-7.51443 5.83398,-7.84961 z m 43.00391,2.17968 c -6.02427,-0.35145 -1.51148,11.07288 -11.51367,3.58203 -9.54203,-7.0642 -37.66784,7.44399 -13.50196,8.74219 20.25581,5.94522 43.17796,1.31016 61.96875,11.71485 15.03544,13.16097 -40.91653,-5.51708 -17.85156,7.18164 11.45546,-0.83331 21.21916,6.27253 32.04102,8.57226 0.58876,-28.0149 -26.858,-37.09469 -48.90821,-39.27148 -0.87647,-0.32236 -1.61117,-0.48513 -2.23437,-0.52149 z m -1.74024,18.96875 c -4.01049,-0.35395 -6.81658,8.10014 4.95899,7.60938 -1.06458,-5.46799 -3.13604,-7.44849 -4.95899,-7.60938 z m -33.20507,2.0293 c -9.12692,0.0794 -25.30854,6.43438 -5.93164,4.76172 l 2.63867,-0.16016 c 12.72483,0.0527 25.04469,-3.73153 5.01172,-4.52929 -0.53314,-0.0547 -1.11029,-0.0776 -1.71875,-0.0723 z m -190.60157,23.99024 c 8.69773,-0.21806 18.04591,10.82491 20.36914,11.22656 -4.17853,6.29732 -11.53067,10.2825 -11.62304,16.07812 l -2.44727,-3.28515 c -3.8742,-8.42744 0.1625,-18.70974 -12.12305,-21.79883 1.84362,-1.51883 3.81706,-2.17038 5.82422,-2.2207 z m 52.6211,22.88867 c 6.56914,0.34682 15.26002,6.18206 2.5332,10.72851 -4.46203,6.3118 -3.08189,-8.7243 -7.52344,-8.99609 0.84675,-1.35492 2.80052,-1.84803 4.99024,-1.73242 z m -25.45117,28.29101 c 4.04846,-0.0465 8.11418,2.40574 7.17968,8.3125 -4.04863,-8.83893 -9.15534,5.1263 -12.04101,2.22852 -5.5191,-6.29077 -0.34385,-10.48127 4.86133,-10.54102 z m 150.32226,4.9375 c 5.22659,-0.35143 25.83924,5.3481 6.39258,3.30274 -1.47863,-0.14136 -2.95891,-0.28249 -4.4375,-0.42383 -3.7299,-1.97314 -3.69728,-2.76176 -1.95508,-2.87891 z m -18.32226,0.18555 c 5.42149,-0.16079 12.68124,1.7186 15.76953,6.48437 22.81103,-1.87537 -12.52043,8.88065 -14.78516,2.4668 -11.88542,-5.16357 -7.95486,-8.74444 -0.98437,-8.95117 z m -36.57032,1.5625 c 3.5878,-0.0875 6.70505,1.39298 6.66992,6.16016 -2.92947,0.65862 -5.81022,-0.40693 -8.58984,-1.13282 -16.13934,2.94416 -5.97324,-4.83493 1.91992,-5.02734 z m -104.37109,5.16992 c 3.59534,0.0258 7.18391,1.82767 8.83789,6.71875 1.96509,2.3783 5.5764,14.53628 -1.95117,9.92578 -4.49439,-1.89313 -12.35843,-19.72346 -10.20508,-5.04297 -12.53683,-3.12347 -4.59139,-11.6583 3.31836,-11.60156 z m -46.48242,9.77539 c 1.0292,0.21309 2.39737,2.8529 4.15039,9.33008 1.08964,4.00703 -0.11643,13.6896 -6.54102,9.4707 -0.5024,-7.9931 0.12638,-19.26957 2.39063,-18.80078 z m 67.57812,9.51172 c 4.39852,0.60731 -11.83116,19.64407 -16.34375,16.70117 0.95655,2.67504 -2.66956,6.97866 -4.17187,2.4961 -12.17889,1.55949 -21.84331,-1.43493 -10.64453,-12.40235 -2.0315,-12.95792 21.2123,9.83987 27.53515,-5.61328 1.7774,-0.93078 2.94687,-1.27527 3.625,-1.18164 z m -16.34375,16.70117 c -0.15438,-0.43174 -0.41578,-0.8261 -0.83789,-1.1289 0.19431,0.52899 0.48048,0.89581 0.83789,1.1289 z m -27.43164,25.64844 c 6.89066,0.41492 24.12981,11.04431 4.42969,8.74609 -0.99024,-0.26906 -1.98047,-0.53756 -2.9707,-0.80664 -5.58517,-6.20567 -4.59111,-8.12805 -1.45899,-7.93945 z"
         transform="matrix(-0.26458333,0,0,0.26458333,230.2761,-4.3386454)" />
      <path
         id="path1026"
         style="fill:#71736a;stroke-width:0.999999"
         d="m 235.00586,82.294922 c -6.63088,11.468951 -4.90115,32.324058 -13.11719,43.630858 -12.54603,17.255 12.05994,27.2626 -1.71289,44.2461 4.03174,17.8602 0.32162,38.50589 2.3086,57.3789 4.72652,24.75636 -3.06636,49.77152 -5.11524,74.46875 -2.45953,23.96419 -7.12528,46.8204 -11.02734,70.45313 -0.96163,29.30926 -5.38307,59.42532 -18.48242,85.82226 0.75404,5.67865 -0.90855,12.68916 -2.37696,19.62891 v 11.33984 h 93.78125 c 2.03054,-3.26018 4.65017,-2.29438 6.13281,0 h 14.27149 c -0.11444,-1.29554 -0.35251,-2.68195 -0.72656,-4.16406 1.8012,2.2619 3.29024,3.56081 4.48437,4.16406 h 2.55664 c 1.38066,-1.16665 1.31286,-4.70441 -0.2168,-8.17383 6.59052,0.0806 23.83209,1.18689 18.10938,8.17383 h 65.0332 c 4.30476,-18.29184 16.69225,-35.34887 6.09766,-54.27344 -0.21543,-11.51221 1.56652,-34.57149 8.24219,-11.96289 10.43591,8.69193 13.12998,-10.10436 9.49804,-15.59375 8.41357,-7.44582 13.09812,-1.98766 14.51563,10.125 9.81649,1.59583 16.99874,-21.6523 17.41797,-27.55468 -22.26618,-6.97545 1.58214,-26.24257 16.46093,-21.46485 23.33795,-0.53006 44.70444,0.375 68.08399,-2.54883 19.12603,-8.50101 57.74045,9.90864 60.20508,-20.13671 5.41169,-25.88304 -23.55045,-36.32232 -44.34571,-36.87696 -22.0796,-2.59797 -44.27746,-5.97135 -66.77343,-4.30273 -18.8473,-9.13009 -40.45633,-2.25821 -57.7793,-5.30274 -27.02767,-5.8621 -0.65987,-20.24499 14.0957,-16.24218 17.72671,4.84069 38.1464,-2.11247 54.80274,4.6289 -26.9534,3.06482 10.1333,3.54848 18.47265,4.35352 20.46447,4.52954 41.03551,5.82755 61.19141,11.05469 13.73677,-21.01753 -26.58187,-27.19585 -42.07422,-25.97461 -42.82921,-10.01826 -87.39444,-13.59317 -131.11133,-7.57227 -13.78658,5.20964 -31.60974,-3.96052 -14.67968,-16.69531 9.64142,-7.32179 41.93491,-12.6749 38.33593,-20.14063 -4.18832,-7.40854 28.13865,-21.37534 3.73243,-30.13672 2.26673,-6.82482 27.08877,-13.39753 7.24414,-13.10742 -16.14002,-3.41749 -22.79303,-17.87346 -5.10352,-24.95898 -8.20921,-3.41732 7.15375,-17.7402 -6.20117,-10.93946 -5.9062,-21.73479 9.83103,-52.47146 -0.48242,-71.345698 z m 33.76953,104.025388 c 13.71598,-0.12404 13.73268,7.77225 3.47266,13.08594 6.14725,15.52108 23.29565,-14.77215 16.31445,4.75391 0.53866,10.94922 -2.54283,14.18752 -8.95703,10.96484 3.63288,19.11153 16.89138,28.68355 31.37109,40.58594 8.87921,16.21389 -21.25033,14.21142 -10.07812,23.29492 0.44284,3.33835 -2.3671,7.37395 -6.08789,6.25391 -5.8983,-17.70985 2.18921,-36.08701 -20.29297,-38.00391 4.37643,-22.62853 -26.94824,13.01892 -30.58203,-11.74609 -5.90593,-13.07276 34.84023,-10.53525 14.91211,-23.87891 20.01105,-5.17383 -12.81055,-25.07617 9.92773,-25.31055 z m 176.26953,16.1836 c -2.21401,-0.0939 -5.00555,0.47549 -8.21484,2.11523 -10.01484,0.72867 -1.2815,5.28883 2.38086,5.73438 14.26547,1.28145 13.74118,-7.51443 5.83398,-7.84961 z m -218.02148,0.0859 c 1.63475,-0.14277 3.13249,5.03491 1.34179,13.20899 -0.70888,8.66534 -3.79832,1.95222 -3.92187,-2.12695 -0.0453,-7.6421 1.3086,-10.97099 2.58008,-11.08204 z m 261.02539,2.09375 c -6.02427,-0.35145 -1.51148,11.07288 -11.51367,3.58203 -9.54203,-7.0642 -37.66784,7.44399 -13.50196,8.74219 20.25581,5.94522 43.17796,1.31016 61.96875,11.71485 15.03544,13.16097 -40.91654,-5.51708 -17.85156,7.18164 11.45546,-0.83331 21.21916,6.27253 32.04102,8.57226 0.58876,-28.0149 -26.858,-37.09469 -48.90821,-39.27148 -0.87647,-0.32236 -1.61117,-0.48513 -2.23437,-0.52149 z m -2.69141,18.4043 c -3.82131,-0.2167 -5.05727,9.22404 5.91016,8.17383 -1.90178,-5.98108 -4.1732,-8.07533 -5.91016,-8.17383 z m -32.03125,2.85156 c -9.70466,0.1309 -21.5068,6.75387 -4.01562,4.34375 8.47014,0.0643 26.85261,-3.1681 7.95312,-3.95703 -1.20926,-0.29153 -2.55112,-0.40542 -3.9375,-0.38672 z m -120.03906,21.50196 c 5.26505,0.18237 10.17398,2.28827 9.22851,8.45703 -5.16963,2.96442 -7.82948,-4.32784 -13.06835,-3.23242 -14.70064,-0.48816 -4.93525,-5.52857 3.83984,-5.22461 z m -70.72266,2.41601 c 8.16923,-0.63009 14.9361,7.73936 20.84571,12.07227 -9.6042,2.74372 -9.51604,25.01375 -16.84961,10.39843 -1.04421,-8.93811 2.00935,-16.8239 -9.88282,-20.43554 2.04128,-1.26426 4.00152,-1.88975 5.88672,-2.03516 z m 55.61914,6.72656 c 4.08609,-0.38782 20.5954,9.57923 3.65821,6.60743 -4.95401,-4.71859 -5.25711,-6.45567 -3.65821,-6.60743 z m -70.23242,11.56055 c 0.56148,0.13377 0.59468,1.81656 -0.33789,5.76367 -10.34037,2.86262 6.92727,24.16697 -5.92187,19.56446 -4.48373,-6.51908 4.2545,-25.80587 6.25976,-25.32813 z m 179.76758,2.47266 c 6.35192,0.14137 20.24585,3.59644 2.88281,2.76367 -1.07539,-0.0629 -2.15117,-0.12652 -3.22656,-0.18945 -3.87381,-2.01963 -2.54349,-2.63848 0.34375,-2.57422 z m -112.98047,1.94922 c 6.60483,0.0861 16.31375,5.10235 3.06836,10.45117 -7.03419,3.35219 -3.34933,-6.97973 -7.67383,-8.72461 0.54632,-1.23704 2.40386,-1.75528 4.60547,-1.72656 z m 59.54297,0.68164 c 3.98924,-0.13158 16.45747,10.90154 1.59375,5.61133 l -1.06641,-0.55079 -0.36328,-0.18945 c -1.88107,-3.54301 -1.49381,-4.82723 -0.16406,-4.87109 z m 5.95508,12.03125 c 7.83675,-0.14862 32.20692,6.33436 9.97656,5.97265 l -4.06055,-0.46289 -3.73828,-1.48242 c -5.77925,-2.89636 -5.24429,-3.96919 -2.17773,-4.02734 z m -93.04297,16.34375 c 5.83924,-0.0114 13.52642,3.67573 6.30273,4.91211 -3.7483,-2.4342 -7.43214,9.90483 -8.68554,4.71679 -5.58197,-7.37332 -2.15882,-9.62004 2.38281,-9.6289 z m 138.4082,2.67578 c 14.87987,-0.0349 29.69299,1.83818 44.37305,4.625 15.96907,-0.14597 50.45195,2.76731 54.84961,9.67187 -20.0325,-1.89472 -40.31118,-13.54819 -56.375,2.42188 l -4.3711,-1.82617 c -14.05965,-0.82675 -1.6027,-12.14301 -15.19921,-7.22657 -6.38132,14.2402 -32.8595,0.29392 -46.56641,2.86524 -10.04855,-4.634 -29.49647,7.51903 -32.71289,-1.54102 9.05405,-16.58508 34.92154,4.53746 35.67578,-7.66601 6.78497,-0.89803 13.5626,-1.30836 20.32617,-1.32422 z m -144.84179,8.04883 c 3.78978,-0.19022 7.5506,1.80618 9.2207,7.96679 2.64189,2.664 4.5404,11.14329 -2.36328,9.03711 -4.51495,-1.88822 -12.25159,-19.68497 -10.32422,-5.0332 -13.34741,-0.54662 -4.87072,-11.55223 3.4668,-11.9707 z m -46.51172,10.13476 c 1.0292,0.21309 2.39737,2.8529 4.15039,9.33008 1.08964,4.00703 -0.11643,13.6896 -6.54102,9.4707 -0.5024,-7.9931 0.12638,-19.26957 2.39063,-18.80078 z m 67.55859,9.50781 c 4.45727,0.50918 -11.79096,19.67074 -16.32226,16.70704 0.95361,2.67512 -2.67224,6.97559 -4.17383,2.49414 -12.24545,1.82253 -21.91999,-1.6873 -11.13477,-12.42774 -2.00149,-13.81216 21.31201,10.29644 27.97656,-5.52929 1.78962,-0.95726 2.96731,-1.32262 3.6543,-1.24415 z m -16.32226,16.70704 c -0.15423,-0.43264 -0.41701,-0.82562 -0.83985,-1.12891 0.19568,0.52942 0.48231,0.89506 0.83985,1.12891 z m 44.76562,5.95507 c 0.61334,-0.006 1.33123,0.0314 2.16602,0.11524 0.40497,3.68102 3.71777,17.93821 -5.04102,11.53125 7.87096,-1.99126 -6.32511,-11.56277 2.875,-11.64649 z m -72.30273,19.66797 c 6.8267,0.35886 24.09376,10.92101 4.94921,9.01172 -1.12898,-0.34908 -2.25773,-0.69976 -3.38671,-1.04883 -5.61091,-6.18242 -4.66555,-8.12601 -1.5625,-7.96289 z m 24.11914,92.52344 c 8.53461,0.20911 19.20854,6.34433 1.44921,4.48828 -2.66562,0.69831 -5.87893,4.41319 -8.70507,2.06055 -1.09699,-5.14179 2.78534,-6.65836 7.25586,-6.54883 z"
         transform="matrix(-0.26458333,0,0,0.26458333,230.2761,-4.3386454)" />
      <path
         id="path1024"
         style="fill:#55554a;stroke-width:0.999999"
         d="m 234.88086,82.294922 c -1.29553,2.369263 -2.13327,5.366462 -2.35742,9.199219 -9.05303,13.566069 4.56988,32.392389 -12.12305,39.199219 -3.08647,16.21652 10.86688,32.93043 1.05859,47.85937 3.50211,9.21064 -0.72651,40.54997 5.92383,20.25391 3.81812,5.6182 3.8111,28.83829 -5.27734,14.39453 3.47063,15.11326 -1.43639,37.05326 7.65625,45.99414 -10.40927,2.36107 2.18157,26.54232 -6.98242,28.10352 -5.53833,-25.22105 2.51425,22.81354 -0.96485,15.07422 -12.81792,-1.39771 -7.78562,39.5952 8.06836,17.67968 12.05224,-4.19625 14.41876,-36.06715 5.39453,-29.38867 -10.20699,10.27721 -7.66653,-9.70985 2.77539,-8.08594 3.51073,-14.10873 3.66634,-22.14354 14.08789,-27.18359 12.18365,-15.63181 -24.80883,-11.55891 -11.40039,-30.27734 5.3957,-4.60925 32.11113,-1.95747 16.3711,-13.91211 8.95007,-9.8772 1.00601,-17.81894 -5.45899,-4.88477 -6.15061,-15.45998 14.91363,-18.28398 5.04883,-35.44726 -2.77878,-13.12544 23.58922,-22.16121 10.28321,-4.28711 -10.30663,15.72868 25.57813,-15.15482 15.12109,8.16992 -16.35012,0.22643 -15.39214,12.65621 0.72656,13.20508 22.74883,5.93525 -4.03665,32.38728 8.7832,46.37695 9.76105,1.75509 21.43749,25.8906 29.07618,9.39258 6.17983,-18.00847 14.57647,7.87112 27.56054,-2.72461 15.23796,-4.73064 20.88068,13.84235 3.99024,16.38086 -8.28454,4.45068 -11.99228,11.73992 -19.41992,7.14062 -5.58082,7.39961 -17.42138,24.64208 -15.57618,27.34961 17.70838,8.63737 -20.53458,0.59729 -4.90234,12.76563 17.93424,5.4305 -5.80334,5.07147 4.17578,17.625 7.88258,15.71145 -10.70935,-2.02764 -9.60547,-2.58203 -10.46952,10.53514 22.76951,20.31096 -2.53125,17.26172 -13.01034,-0.18974 10.8584,18.01382 -5.18554,15.70507 -2.79406,13.42656 21.41801,0.6489 10.94921,14.34375 -11.10905,-4.12787 -20.0952,-10.39502 -29.45898,-1.27539 -16.12736,-5.01864 -8.49963,4.63081 0.0176,9.01368 -7.77381,20.33577 -30.23419,7.01224 -30.46289,-8.6875 -9.06202,-2.89686 -27.55343,-3.2073 -21.73242,-17.54688 -10.7754,15.57954 -0.52487,-28.25315 -6.69922,-6.73242 -4.99283,8.74613 -10.00556,-8.61939 -10.08399,7.5957 -9.65794,21.64433 -2.44648,46.34111 -10.2207,68.5918 -0.9877,20.1775 -17.39955,37.22692 -14.73438,57.05859 -0.50264,0.99686 -0.92461,2.02067 -1.28906,3.05664 v 11.19336 H 278.709 c 1.27628,-2.54132 3.63412,-3.45765 7.92579,-0.47265 -0.12743,0.13812 -0.24366,0.29834 -0.35352,0.47265 h 8.83008 c 1.92565,-10.29109 18.18195,-30.23379 21.0039,-15.08203 8.81441,2.83474 14.28328,10.08183 10.33008,15.08203 h 62.16211 c 4.16758,-18.39945 15.85892,-35.69949 5.7793,-54.50781 -0.34961,-11.08441 1.71636,-35.99894 8.26953,-13.0625 9.52505,12.2459 13.41565,-9.41176 10.37109,-16.91602 11.25408,-4.78665 13.89325,3.02026 13.49024,10.59961 13.21508,-1.43648 15.9379,-19.66371 17.3457,-25.7832 -21.9267,-7.58245 4.56692,-26.87249 18.82617,-21.46094 20.65841,-1.49966 38.60279,2.51863 58.56836,-2.35937 20.86579,-2.99196 42.69143,0.72032 62.86914,-6.64063 19.49449,-14.57637 -15.76123,-35.02256 -24.47265,-29.56445 -10.05175,5.31594 -18.79751,-18.98024 -30.87696,-6.50391 -11.01817,-6.55995 -30.39911,11.18073 -44.86718,-2.34179 -17.24459,3.52312 -34.48261,-4.31791 -51.78907,-0.42578 -14.38155,0.10132 -26.06068,-4.36576 -38.17773,0.61718 -7.85564,-9.45997 -24.86613,4.99676 -25.72461,-7.6289 10.29162,-12.43023 46.81468,-5.04911 48.06445,-13.84766 -11.66022,3.49875 -12.28254,-10.37415 -16.0039,-8.51953 -11.12323,5.07416 -43.28298,-6.57339 -15.56446,-4.91602 22.72955,4.44813 44.3293,-6.77404 66.91016,-2.59961 23.30358,0.32633 44.62148,3.84903 67.20117,9.47657 17.09265,-4.14315 43.50313,17.99178 52.72461,2.71093 -9.25861,-23.87141 -42.2567,-11.14365 -61.63476,-20.75781 -24.57478,-4.97855 -49.74048,-8.689 -74.86133,-6.56445 9.21834,-1.29749 28.77462,10.5618 10.16211,5.92578 -20.9816,0.90209 -43.46924,6.7095 -65.39844,6.41602 -26.56018,-9.48422 5.96517,-37.44429 22.77734,-37.31055 14.0154,-4.41781 28.78722,-27.80952 10.11133,-32.66016 2.74545,-12.93743 15.98731,9.0067 12.45508,-5.66015 -3.22292,-5.1965 -7.23055,-15.2917 -5.70899,-19.4961 -16.55659,-5.51408 -1.9934,-17.91927 3.84571,-22.29687 -3.88812,-10.54076 6.88473,-10.69221 -4.4043,-14.2461 -8.16374,-21.86679 15.3262,-45.74849 -1.18164,-65.853512 -0.23853,-0.280377 -0.48304,-0.52619 -0.72461,-0.791016 z m 9.78711,7.630859 c 2.04323,-0.176426 2.86113,1.936501 -1.55274,7.105469 -0.76524,6.29692 -5.20276,13.34818 -3.89062,3.29687 -1.83494,-6.164688 2.81635,-10.175505 5.44336,-10.402339 z m 89.67187,110.333989 c 1.97908,-0.21001 3.60918,0.81396 3.28125,3.73632 9.26484,5.28642 10.83441,12.23964 -0.0254,9.35157 9.7132,5.37768 0.99602,19.39527 -8.65625,11.85156 l -0.28125,-1.58984 c 0.20183,-8.1524 13.50706,-0.38605 4.71289,-11.08204 -9.42435,-5.36554 -3.38522,-11.80557 0.96875,-12.26757 z m -18.3457,10.03515 c 3.18264,0.54515 18.35,15.68869 2.4082,5.78906 -3.19853,-4.53064 -3.46908,-5.97077 -2.4082,-5.78906 z m 194.81055,1.375 c -1.58224,0.0257 -2.96341,0.46512 -4.02735,1.41602 9.69178,5.76279 10.98006,16.87381 29.03321,18.97265 -2.04935,-8.60246 -16.4618,-20.52758 -25.00586,-20.38867 z m -23.85938,2.63086 c -6.84857,0.27 -10.76598,2.87007 2.20899,4.87891 4.14997,0.38883 8.39301,1.06193 12.52343,0.0957 -2.3056,-3.98435 -9.40575,-5.18461 -14.73242,-4.97461 z m 45.08203,21.95117 c -4.81712,-0.31498 -8.04221,7.86693 6.07618,7.31446 -1.36864,-5.27252 -3.88657,-7.17128 -6.07618,-7.31446 z m -271.23828,20.97657 c -1.53293,0.0289 -3.67701,0.73623 -6.68945,2.33984 -2.59756,10.10285 7.20157,16.56158 -7.16797,18.22266 -0.0435,5.84302 17.8366,-0.65147 12.55078,11.28515 9.61803,10.53599 -1.90196,25.97956 16.9961,22.02149 l 4.60742,0.48632 c -5.77625,-4.10696 -20.17989,-12.23008 -4.49024,-12.61523 6.04184,-9.19923 20.20389,-11.5109 3.875,-16.62695 -2.58776,-9.13361 -6.51948,-11.63141 -7.35351,-0.5586 -13.56122,-5.0846 -4.05027,-24.71077 -12.32813,-24.55468 z m 25.55078,3.76367 c -5.09963,-0.14891 -9.84673,10.34685 5.47071,11.82226 -0.0305,-8.74593 -2.79947,-11.74426 -5.47071,-11.82226 z m 114.15625,8.65429 c -5.40396,-0.3103 -26.60146,4.68124 -12.15625,7.49805 8.93851,0.20077 36.42567,-7.69579 13.01172,-7.36328 -0.20464,-0.07 -0.4952,-0.11408 -0.85547,-0.13477 z M 251.70703,299.9707 c -19.90212,7.66114 -9.97372,32.23642 -13.45508,48.03711 -0.69929,4.18014 1.1475,10.35961 6.3086,10.47657 -7.02539,-18.58354 24.32197,6.61312 18.10937,-16.35157 -8.00662,-19.08857 35.4433,-2.97706 15.8418,-17.04297 -11.29701,5.84914 -32.30728,-17.51561 -10.19141,-5.375 -0.73731,-9.76314 -15.64232,-7.36565 -16.61328,-19.74414 z m 217.47852,4.65821 c -7.75812,0.27612 -13.31999,3.54817 1.66211,4.14257 3.56269,0.24847 7.16962,0.40582 10.71289,-0.17773 -2.27389,-3.21884 -7.72013,-4.13052 -12.375,-3.96484 z m 41.05664,1.70703 c -27.73278,1.08702 13.35881,10.80972 21.50976,10.07617 17.4438,0.82118 35.54827,3.49426 46.45899,16.04492 -5.34337,-6.92253 4.46584,-17.58302 -10.53516,-17.82031 -18.65129,-5.24855 -38.55741,-4.50095 -57.43359,-8.30078 z m -220.6543,5.8457 c -0.81178,0.22021 -0.32008,2.64166 2.9043,8.46875 1.66892,2.82594 -1.63866,17.20275 4.99219,12.94531 4.76309,-8.15507 -5.82195,-21.97682 -7.89649,-21.41406 z m -16.72461,40.42969 c -2.22979,0.0866 -4.70706,0.73084 -6.83398,2.29297 l 3.97461,2.23828 c 13.99901,-0.0358 9.54873,-4.7912 2.85937,-4.53125 z m 59.76953,1.0664 c 9.03296,-0.41173 1.7171,22.99222 12.90821,28.29102 -4.7565,1.83798 -10.0617,0.36651 -14.31446,-2.02539 -5.2261,-10.10485 -22.16418,-13.73544 -5.51562,-23.32031 3.01546,-1.97592 5.2491,-2.86907 6.92187,-2.94532 z m -18.33008,20.22461 c 5.99577,-0.0549 13.926,6.66232 0.33204,8.35938 -1.41665,1.09269 -4.21352,1.19035 -4.78907,-1.00391 -1.29215,-5.44073 1.31639,-7.32672 4.45703,-7.35547 z m -25.97461,4.8418 c 1.21719,-0.0849 2.79306,1.63367 4.36329,6.36914 0.85443,2.39434 1.76903,9.5856 -3.32422,7.46289 -4.65947,-4.72804 -3.71687,-13.64519 -1.03907,-13.83203 z m 115.41993,21.50391 c 2.51863,-0.0344 3.98532,2.11883 -0.004,8.66992 l -0.94922,-0.47656 c -10.36162,-1.99933 -3.24459,-8.13597 0.95313,-8.19336 z m -90.50391,2.29101 c 4.4161,-0.15796 7.91956,1.68343 -1.52344,6.36719 l -1.4414,0.13672 -0.98633,-0.87695 c -5.79439,-3.31165 -0.46493,-5.46899 3.95117,-5.62696 z m 12.82422,7.80078 c 3.27893,-0.27387 3.799,1.53032 -1.94727,8.66602 -11.39765,-6.85973 -14.81063,7.03617 -24.31054,4.80859 11.48685,-4.34373 -9.1677,-12.33299 7.38281,-9.02148 5.88349,-0.31378 14.65923,-4.101 18.875,-4.45313 z m -20.19922,23.67969 c 9.01632,0.36929 26.45112,11.97617 12.44336,16.63672 -4.39158,-9.99458 -36.91491,0.9424 -29.38477,16.33203 16.59451,3.89949 -3.63519,-17.25583 14.89844,-10.35547 17.61377,7.957 -22.31127,20.91842 -28.77344,16.06641 4.77937,-15.48189 17.99298,-30.02044 29.13672,-38.59766 0.51445,-0.0807 1.0786,-0.10665 1.67969,-0.082 z"
         transform="matrix(-0.26458333,0,0,0.26458333,230.2761,-4.3386454)" />
      <path
         id="path1022"
         style="fill:#4a4935;stroke-width:0.999999"
         d="m 237.16992,82.294922 c -0.18668,0.217547 -0.32394,0.349432 -0.52148,0.585937 -11.1385,12.632478 -4.04422,32.079941 -6.84961,43.369141 -14.51947,3.89109 -4.9288,4.97367 0.0586,8.48633 -9.86717,6.25187 -12.77275,7.00232 -4.05273,17.28125 3.64187,9.3173 -3.28166,13.44317 4.78125,9.83594 -10.97492,13.96394 -6.54647,30.60526 1.22265,46.32812 5.36595,23.09238 22.32699,-4.1248 12.56836,-14.10547 17.43134,-7.17816 1.80616,-40.02112 28.1836,-38.98828 12.53098,4.57462 22.08017,17.65279 2.92968,23.18945 -8.02586,6.58131 20.59804,8.32668 26.13282,16.49805 0.43631,7.77541 -16.34364,16.21008 -10.36133,30.2168 1.35832,14.18189 28.04635,27.22614 34.68555,8.80469 8.75829,10.1733 17.70803,7.92597 27.61523,4.1582 16.58676,4.07084 16.62088,30.17981 -1.04297,24.05273 -11.8402,5.19463 2.69824,20.19789 -13.87109,13.58985 -10.26607,7.61972 2.88092,-13.59351 -8.13282,-3.69532 -5.32599,6.56754 -17.26896,18.03176 -6.08984,21.74805 -4.92555,6.03326 -13.61887,12.02429 -1.74023,15.41602 -8.47847,7.85549 -6.2818,6.07043 0.13281,13.61328 5.58848,21.90513 -38.1577,11.73807 -12.4707,27.8457 13.92257,23.8311 37.16009,-30.44337 40.90039,3.5957 3.2711,20.3956 0.79376,39.15225 -16.19922,51.48438 -0.20636,16.56106 -18.25729,26.29405 -28.33789,17.91015 -21.82534,13.50399 22.71167,8.68341 26.71094,22.04102 7.65104,-2.45873 2.38249,-23.62377 12.82812,-12.38867 11.90351,-9.6308 -21.81917,-7.59878 -4.16016,-13.23047 9.38219,8.99388 16.19509,-18.68129 19.57618,0.17969 -2.05595,10.82105 6.52137,26.6597 -8.70899,22.18164 -8.49464,8.06789 16.94312,5.91009 0.37695,12.90429 9.22848,3.53995 4.66208,23.18915 -4.875,19.9375 13.94782,-9.81981 -12.28195,-17.92225 -7.88281,-2.72851 -5.33454,10.35859 -18.30713,6.24681 -4.10351,13.83984 -0.0604,0.42656 -2.88696,1.50895 -6.35547,3.01172 h 24.33008 c -0.2822,-10.01589 8.92385,-16.49311 5.43554,-1.79101 0.13479,0.51632 -0.0383,1.13896 -0.38281,1.79101 h 27.98633 c 2.99873,-16.32677 18.34801,-30.58751 6.79883,-47.49219 -2.97404,-10.51729 3.32027,-44.5325 9.03711,-18.97265 18.33509,9.41677 -0.42123,-25.81864 19.56835,-20.61328 5.12255,7.15271 1.66198,18.99302 12.74219,7.06445 9.27814,-5.42188 0.86343,-10.56505 3.63477,-12.71484 -10.21996,2.75712 -20.73979,-0.30683 -4.62305,-3.48438 17.5276,3.36173 2.13143,-6.51711 -0.8457,-13 -7.65351,17.97825 -5.86747,-12.75979 8.30859,-9.22656 22.90761,-6.29287 46.31385,-1.63758 68.11328,-3.80274 21.97629,-2.7803 44.16542,-3.21286 66.03711,-5.53125 28.34337,-7.8687 0.89483,-34.00387 -18.08593,-28.6875 -25.89551,-2.27806 -51.89584,-3.6332 -77.59571,-7.68945 -22.51181,-1.03439 -45.25985,-3.90254 -68.25,-2.5625 -15.71134,-4.91973 -43.16614,7.59767 -51.5664,-5.25781 2.74998,-17.53193 43.35605,-8.0486 42.60351,-17.81445 -11.22852,0.52007 -23.49033,1.96346 -5.54687,-4.73633 -4.93304,-7.9949 -46.23631,6.62162 -24.8418,-9.84766 12.37391,-2.51665 -17.24745,-12.83554 -1.67969,-23.44922 11.52064,-16.22093 32.7537,-19.63895 46.17578,-33.19336 10.2017,-7.83667 -1.45319,-19.24539 -2.2207,-4.70703 -11.83506,4.17394 -18.83678,-15.02312 -3.38672,-13.99023 9.40044,-6.7548 12.24814,-34.10285 -4.88476,-21.14453 -0.21997,-0.68294 4.31068,-20.7914 -8.43555,-15.75391 -1.17525,-4.40978 13.19878,-23.50472 9.06836,-13.39648 7.68434,19.46061 26.90888,-7.84942 9.03515,-7.39844 -3.76799,-21.92784 13.5638,-50.23299 0.32032,-69.566408 h -38.29492 c -3.0104,2.572332 -5.88343,5.394886 -8.66211,8.097656 -3.95103,-0.3238 -0.29369,-4.217008 2.47265,-8.097656 h -121.5586 c -4.27007,11.323254 -6.02052,33.803658 -14.3086,22.171878 0.21688,-3.8789 4.72086,-15.731311 6.00196,-22.171878 z m 136.63477,19.138668 c 8.0219,0.33731 18.52528,23.80307 2.99414,17.59375 -1.40372,-7.4274 -5.14159,-13.93233 -7.01563,-15.0664 1.13416,-1.85908 2.53595,-2.58981 4.02149,-2.52735 z m 9.33398,33.85157 c 4.45207,-0.3452 10.79506,3.78544 5.5625,10.84375 l -2.11133,0.14257 -4.07226,-1.33007 c -5.15959,-6.41297 -2.84163,-9.38777 0.62109,-9.65625 z m 18.38867,9.51367 c 5.04418,-0.48827 22.90718,4.68899 5.57618,5.15234 -7.51348,-3.5377 -7.86898,-4.9304 -5.57618,-5.15234 z m -81.08984,7.20898 c 4.02161,0.029 6.46683,10.28202 -5.73828,11.1836 1.09288,-8.40975 3.63172,-11.1988 5.73828,-11.1836 z m 3.19922,10.96094 c 1.15699,-0.14772 2.95443,1.2274 5.26367,5.30273 4.53551,3.58939 18.73317,8.41381 5.1582,5.32618 -11.59259,3.95929 -13.89285,-10.18575 -10.42187,-10.62891 z m -21.51758,7.1875 c 0.92503,0.14862 1.97215,2.30381 2.93555,7.7207 -0.18444,2.11232 -2.08548,15.78272 -5.03907,7.06446 -1.37087,-5.72833 0.0684,-15.11213 2.10352,-14.78516 z m 14.61914,21.61133 c -1.96112,9.91372 11.58276,21.22639 11.69531,5.48828 24.06142,-5.23637 26.49191,31.19473 3.19532,31.26953 l -2.26172,-0.68164 -1.53711,-1.5625 c -14.87849,-0.73003 -19.74215,-27.24881 -11.0918,-34.51367 z m 39.52344,16.92969 c 2.12048,-0.0619 3.9237,2.35046 2.3164,8.60156 3.5822,4.16144 -2.8586,12.17405 -3.99023,3.26953 -5.20352,-6.40449 -1.42533,-11.78062 1.67383,-11.87109 z m -102.6543,5.62109 c -5.39511,-0.27169 -13.05906,10.22964 1.32813,5.73047 0.8033,-0.30459 1.60685,-0.60954 2.41015,-0.91406 -0.39353,-3.43968 -1.93991,-4.72585 -3.73828,-4.81641 z m -26.83594,3.63281 c -1.50172,0.0745 -3.46029,0.75467 -6.01171,2.22852 11.59226,7.38455 4.33861,26.62032 5.94335,32.73047 9.10046,-1.47767 9.85793,4.03078 16.34376,4.97265 15.4673,-8.14742 0.23628,-19.65611 -10.4043,-17.50586 -2.96801,-5.55145 2.23819,-22.82808 -5.8711,-22.42578 z m 36.33594,40.89453 c -5.6296,-0.0592 -18.73976,4.49315 -5.29687,6.60938 9.35929,-4.87804 8.67463,-6.57384 5.29687,-6.60938 z m 195.35742,10.72461 c -2.17492,0.0167 -4.27038,0.1189 -6.26367,0.32422 10.24437,3.26693 23.23216,8.58416 4.44727,9.19922 -22.13148,-2.18532 -43.8257,0.26004 -65.63867,2.52734 -12.11834,7.14727 17.53826,5.55961 23.42578,2.52735 18.79105,-7.16123 41.43594,3.29612 57.78515,-1.71875 -6.36994,-3.30435 13.91326,-0.54511 1.26953,-7.04688 19.05696,4.19055 33.41172,21.14077 55.75586,17.5586 11.69735,-2.4675 37.12964,13.84671 41.85743,6.5 -8.95694,-25.71897 -43.30781,-10.99357 -62.48243,-23.32618 -15.77922,-2.5683 -34.93176,-6.66211 -50.15625,-6.54492 z m -195.78906,7.95703 c -1.68011,0.0385 -2.36382,2.59229 -0.88476,9.30078 7.81942,2.68015 6.6258,4.14742 9.88281,10.31055 l 1.77344,-0.0195 2.36328,-0.75976 c -0.91888,-6.82387 -9.43853,-18.91669 -13.13477,-18.83204 z m -43.73828,23.26368 c -2.24721,-0.63094 -5.06438,20.13305 -1.22656,20.21093 -3.09566,-13.61707 31.41832,-1.89053 17.16992,-17.18554 -6.65201,-5.67608 -5.13534,0.86943 -14.56836,1.34765 -0.36906,-2.94134 -0.85641,-4.22744 -1.375,-4.37304 z m 29.29102,5.81445 c -3.56809,-0.21155 -7.51159,2.99498 -8.91407,10.02344 -2.91004,8.97959 6.17855,33.10819 15.91797,32.36718 20.53157,-5.71166 -19.93145,-26.1224 6.34375,-18.09765 6.73028,2.11167 28.95215,1.60541 15.50391,-5.89258 -6.00193,-0.39267 -23.57748,-0.90901 -22.41406,-5.0918 1.16802,-8.43772 -2.39368,-13.06884 -6.4375,-13.30859 z m 274.20117,3.45898 c -7.96389,-0.19974 -12.45524,1.92282 3.00781,4.69336 4.61366,0.9636 9.42757,1.80366 14.12305,0.77149 -2.64168,-3.75061 -10.93673,-5.30949 -17.13086,-5.46485 z m 32.28515,4.09766 c -7.75363,-0.0448 -11.40433,2.01417 3.21485,4.38086 6.10487,1.08633 11.97162,3.36768 18.18554,3.85937 -1.79108,-6.0474 -13.64675,-8.19538 -21.40039,-8.24023 z m -335.83593,37.69141 c -15.81106,0.23508 -11.83097,31.61063 -12.7793,44.78906 -4.87415,23.31107 -8.7808,48.34154 -20.38867,69.00781 2.24762,5.25215 0.97336,12.10435 -0.22852,18.75781 v 4.85547 h 92.58008 c 5.55894,-3.78025 14.32827,-3.44192 17.74609,-5.14062 9.42807,-21.98329 -15.71257,6.09428 -24.24414,-8.79297 -13.05792,-5.9898 -13.58471,-19.21356 1.85157,-10.57031 10.28655,-4.61216 7.0422,-18.85455 20.89062,-23.63868 -1.72721,-14.69907 13.28422,-33.46143 5.50391,-46.00976 -0.40895,8.63811 -20.14194,-2.58184 -4.69532,7.28711 2.17195,11.03951 -25.9005,-2.48153 -14.54687,-14.11328 2.98639,-15.37751 -7.63966,1.48208 -6.67774,3.54687 -9.59565,-8.78072 -22.77896,-6.98736 -24.6914,-23.70703 -9.80035,-5.7272 -21.24517,-3.8809 -26.88672,-15.88867 -1.23731,-0.27574 -2.37952,-0.39849 -3.43359,-0.38281 z m 120.92382,33.15625 c -5.45574,-0.39355 -15.57804,5.8474 -1.30468,7.17578 1.04084,-0.48075 2.08025,-0.96066 3.12109,-1.44141 2.17812,-4.00433 0.66348,-5.55549 -1.81641,-5.73437 z m 64.51368,15.7207 c 2.31729,-0.0193 3.5815,1.93824 0.56836,8.02539 -1.03896,0.9346 -3.01452,0.17729 -2.96289,-1.31445 -10.29701,0.56194 -2.02939,-6.67413 2.39453,-6.71094 z m -189.45508,25.93945 c 6.66461,0.17007 12.82864,2.09394 0.58008,5.04297 -0.79163,0.91359 -3.30578,2.17244 -4.15625,0.43945 -10.25263,-4.06794 -3.08844,-5.65248 3.57617,-5.48242 z M 336.58008,451.25 c -3.24907,0.23133 -6.48545,3.13893 -5.45313,8.9668 9.66501,-0.66569 -8.11217,5.00264 6.36524,4.98828 l 1.79492,-0.58789 0.8418,-1.50196 c 4.82653,-8.03651 0.62855,-12.16266 -3.54883,-11.86523 z m -44.53711,5.80664 c -2.51243,-0.30835 -5.72776,3.52563 -3.12305,9.61328 l 2.33008,0.22656 2.31055,-0.71679 c 1.96659,-6.13827 0.43653,-8.88322 -1.51758,-9.12305 z"
         transform="matrix(-0.26458333,0,0,0.26458333,230.2761,-4.3386454)" />
      <path
         id="path1020"
         style="fill:#2b2917;stroke-width:0.999999"
         d="m 238.2832,82.294922 c -0.48364,0.972941 -1.0138,2.096461 -1.59961,3.40625 -9.60389,13.088402 -8.30245,27.941478 4.29883,35.414058 -3.31729,9.50554 7.9336,14.37737 -5.4375,17.59375 11.03645,3.11837 17.83394,11.32022 1.33203,13.81055 -7.9178,8.57536 -13.98404,38.02888 -4.15039,51.87695 4.21928,-12.31924 21.55752,-19.30832 17.48047,-34.74023 9.94507,-9.85869 19.36536,-22.41724 20.49805,-34.2793 10.45391,3.27914 -6.87173,21.54079 11.58594,22.04297 16.95926,6.79743 -1.45701,19.83017 -7.50977,22.53906 9.50589,5.54609 28.24186,10.96237 22.23437,-7.8457 3.97134,-10.59014 18.86255,-13.8963 19.32422,-28.50976 9.43567,-6.60512 28.95249,14.14314 13.29493,6.22265 -5.72247,13.42767 5.56926,11.90109 12.33593,9.66602 3.05704,7.46458 8.69196,27.86179 7.42578,29.29883 -11.57298,-7.23354 -22.26057,-17.16195 -36.99218,-17.2129 16.95662,-9.66084 -18.39775,-4.62836 -2.28907,8.83594 -9.72177,4.20834 -1.01199,22.8875 -14.04882,27.28516 -3.2967,19.46088 6.69627,-2.28654 14.97461,-4.10938 -12.2685,-18.80403 30.52053,-30.30957 19.07812,-10.68359 12.67884,3.38987 35.37452,-2.77098 30.09766,21.02734 2.06857,11.51374 0.659,27.1186 -6.32618,7.34571 -8.80471,-10.83374 -28.20987,25.66375 -5.4121,16.50781 27.55355,-10.67698 24.83887,40.34631 2.95117,27.21289 16.36667,25.6684 -36.27795,3.35515 -27.80274,25.03711 11.28533,-0.39628 27.4012,1.57728 32.87891,-2.8457 -5.81091,16.63246 -29.96032,12.16168 -37.17578,16.22656 8.07254,6.6326 1.60134,5.92675 1.36523,13.53125 11.80849,9.12728 -3.32252,21.74858 -12.35937,25.88867 -0.37493,7.41786 9.91078,12.79787 16.28711,9.85352 15.35081,-3.12601 11.70545,-20.35023 -3.64453,-15.61329 9.50694,-15.45059 28.42854,3.01239 34.46679,-15.98242 2.36247,-11.28844 14.03001,-25.37673 25.5293,-15.91992 12.01209,0.0454 -8.20895,-4.72814 2.43945,-9.1289 -10.11779,-0.65439 -28.58293,1.31699 -13.76367,-12.14258 -13.08733,-20.50419 11.79489,-34.863 26.91406,-44.38868 7.77392,-4.22846 9.68775,-8.57224 0.9375,-10.1621 13.5704,-3.41559 -9.11751,-14.43733 8.63867,-19.39649 14.20642,-2.27388 9.72974,-18.34888 10.05274,-23.91406 -6.04505,13.24363 -29.26711,1.38269 -17.31836,-9.43164 -17.10924,-6.61925 15.42004,-34.11816 -11.70703,-30.15039 -19.40187,-1.66509 -5.2263,-15.26724 -7.58008,-24.02149 -10.52292,-7.73399 -11.42848,-25.457501 -24.76367,-16.51367 -16.15673,-0.0178 -4.14495,-9.866986 4.51172,-6.080077 -8.67126,-12.040875 15.83349,-5.367742 1.83594,-16.814453 -0.29626,-0.293499 -0.45319,-0.503727 -0.64844,-0.736328 h -99.47852 c 0.0107,9.984801 23.72944,20.799788 5.48047,21.236328 -7.95553,-5.483063 -17.64603,-33.321985 -16.58398,-9.357422 0.51968,14.875092 -23.29672,22.728742 -15.125,3.359375 3.14527,-3.409625 5.76151,-10.439433 6.83789,-15.238281 z m 146.13672,0 c 0.23938,0.691119 0.55174,1.415758 1,2.201172 0.58128,-0.95892 1.09304,-1.679003 1.54492,-2.201172 z m 5.0957,0 c 1.36954,4.857771 -3.50849,23.644268 -6.64648,6.134766 -22.43331,-3.957963 -15.30257,25.765012 2.8457,10.847656 6.08217,-1.422819 11.80669,1.860546 17.00782,4.521486 -3.56618,-7.861023 -2.69251,-16.439313 1.23828,-21.503908 z m -85.11328,8.103516 c 0.85112,0.10027 0.30728,1.328937 -3.33593,4.226562 8.16313,3.021419 8.08888,20.14515 -2.04883,8.05273 -8.07284,-5.426895 3.2097,-12.53554 5.38476,-12.279292 z m 100.79883,19.025392 c -7.99142,0.0584 -21.17803,3.02449 -6.39062,6.34375 15.67954,-4.67596 12.60617,-6.38919 6.39062,-6.34375 z m -106.14062,4.41992 c 1.28699,-0.0543 3.24147,0.92527 6.16992,3.35352 5.72232,-11.31653 -4.70551,16.92339 -1.16602,22.71484 -5.67549,3.41643 -7.60483,18.35057 -13.48437,16.08398 4.30261,-7.68209 -12.68566,-15.63721 4.30664,-16.93164 5.54482,-5.33374 -1.40314,-24.98535 4.17383,-25.2207 z m 99.04883,7.90039 c -1.29427,0.557 -3.4989,15.60728 6.85742,8.75781 12.67861,-4.27623 -4.87618,-12.97062 -6.36524,-3.13476 0.26962,-4.38292 -0.0608,-5.80872 -0.49218,-5.62305 z M 338.9375,141.3457 c 3.43085,0.12056 20.20573,10.96198 4.82812,6.35157 -5.46993,-4.80392 -6.17063,-6.39874 -4.82812,-6.35157 z m 43.53906,10.625 c 3.2841,-0.0156 3.88095,1.43165 -3.07422,6.98633 -1.93874,4.64773 2.89159,14.51945 -6.76953,11.61133 l -1.64062,-3.49219 c 2.97789,-8.21095 -2.55235,-11.20057 -1.5586,-13.31445 3.78775,-0.29791 9.75888,-1.77538 13.04297,-1.79102 z m 30.88477,0.82032 c -2.50866,0.0311 -4.15079,2.22882 -2.12695,8.24609 0.89234,1.56176 4.3051,7.29026 6.49023,3.75781 8.37401,-4.22761 0.42598,-12.06336 -4.36328,-12.0039 z m -74.48828,8.96289 c -4.44282,-0.50419 -11.83886,12.60766 2.54297,6.26757 0.0915,-4.41851 -1.06203,-6.09951 -2.54297,-6.26757 z m -94.20703,40.95117 c -4.52016,-0.088 -18.46219,17.93859 -1.44141,11.00586 3.53632,-8.16182 3.21016,-10.97144 1.44141,-11.00586 z m 62.68164,12.90039 c -3.29425,0.11114 -6.73037,2.06606 -9.59961,6.73242 6.76539,8.71963 18.58594,-11.27603 11.82422,5.45117 -18.59781,0.90015 -2.31903,20.03239 4.48828,13.15235 11.78019,-9.41148 3.16985,-25.66936 -6.71289,-25.33594 z m 61.50976,19.50586 c 3.93822,7.9e-4 9.54813,1.69057 8.07617,4.82812 l -2.33984,0.36328 -3.7832,0.10938 c -8.15779,-3.61367 -5.89135,-5.30157 -1.95313,-5.30078 z m -131.03515,8.2832 c -5.42429,0.0501 -9.63006,2.67479 -4.13868,9.00391 3.97168,-2.84 8.87305,-1.83613 9.26563,3.74609 13.3334,-7.39707 2.80084,-12.82319 -5.12695,-12.75 z M 419.75,280.20898 c -1.10207,0.038 -3.13767,0.29986 -6.40625,0.87891 -7.30443,1.89004 -36.60983,2.14408 -15.0293,5.46289 2.53338,-0.49941 5.00142,-1.26581 7.4961,-1.91992 5.95781,-0.55628 18.71511,-4.58667 13.93945,-4.42188 z m 84.18945,1.98633 c -12.29591,10.71295 22.5522,7.50388 30.4961,10.05469 10.95625,-0.55209 29.17923,11.10952 35.08203,6.97656 -18.146,-13.92732 -44.55703,-13.02599 -65.57813,-17.03125 z m -276,22.4043 c -8.33023,0.0824 -16.84614,3.14433 -9.86523,12.11523 l 0.73633,-2.40039 c 2.35714,-7.87344 24.99375,7.31507 14.67383,-9.33203 -1.71008,-0.2622 -3.62256,-0.40182 -5.54493,-0.38281 z m 17.83203,3.67383 c -2.34226,0.2192 -4.63083,3.11789 -5.85156,10.37695 -2.83102,5.37908 -1.15456,21.20903 7.90039,12.37695 10.26948,-6.37726 3.93697,-23.31408 -2.04883,-22.7539 z m 16.89649,14.6582 c -6.52841,-0.34234 -12.0626,11.28298 6.72265,7.53711 -1.46178,-5.43719 -4.16806,-7.40315 -6.72265,-7.53711 z m 146.76758,0.92578 c -8.31643,0.0294 -15.08305,1.2394 -16.61914,6.01172 -13.07864,5.69482 -49.78338,-5.82709 -42.85547,19.26758 4.15733,14.07758 18.13059,34.83024 -0.97266,44.01953 3.7084,13.84857 23.40445,24.81785 14.04883,43.32227 -1.09259,8.54732 -0.82478,10.90643 0.94336,17.79492 -9.80197,8.88295 1.06478,24.4409 -1.80469,34.99023 h 25.39844 c 3.9944,-17.31563 15.69694,-33.68643 6.08789,-50.51172 -0.68678,-11.50102 -2.97161,-43.36542 13.04297,-36.56836 1.97333,8.35684 -15.28254,5.63994 -3.70313,14.04493 -2.43231,18.12378 18.51138,-1.57609 8.02149,-8.70704 6.71573,-16.03146 17.52037,3.90779 19.25,5.25391 11.69295,-3.82931 8.74375,-20.11303 -1.97852,-15.77148 6.84446,-4.67261 14.29836,-17.21812 4.62891,-15.17188 -3.00998,17.6662 -9.08096,-11.12602 5.24609,-10.08203 23.0089,-6.4752 47.37737,-5.33449 69.42383,-3.14844 24.75569,-9.53219 52.38408,-0.92908 77.16602,-10.32812 11.40393,-21.21558 -24.52601,-23.16388 -38.33008,-22.79297 -19.52725,-0.35384 -37.95425,-2.69535 -56.86719,-6.71289 -17.75365,5.22838 -31.14343,3.7458 -48.19141,-4.23828 -7.98917,1.20386 -21.243,-0.70966 -31.93554,-0.67188 z m 23.1582,10.37696 c 25.41517,1.06362 51.02582,2.39173 76.14063,6.4121 10.14306,2.47171 -3.70537,0.651 -4.88672,0.55274 -21.18006,-2.89916 -62.92417,-2.32722 -71.25391,-6.96484 z m -180.66211,2.07421 c -3.36766,0.0867 -5.51561,2.72741 -0.5332,9.78907 0.004,2.11719 3.42104,-0.0103 4.66601,0.36523 8.31747,-4.95407 0.78916,-10.28105 -4.13281,-10.1543 z m -32.86914,19.07422 c -2.23697,-0.11697 -4.51102,0.98155 -6.89648,4.08203 -5.18854,-10.62975 -5.15005,23.01561 -5.59766,28.56641 0.20976,21.87732 -8.55792,42.89502 -11.79297,63.62305 -5.57995,8.86291 -8.32716,24.12836 -9.29297,37.42773 v 0.18164 h 76.8418 c -3.96932,-0.93581 -5.74678,-4.885 1.39844,-9.9375 2.52253,-9.95478 -14.74708,-20.99238 4.5039,-20.96679 11.58478,-3.53122 18.25993,-14.61495 27.4336,-21.86329 -5.8421,-13.14183 9.35537,-25.06934 4.93945,-38.60156 -6.43143,28.5699 -31.6423,-8.98794 -45.12305,-14.29297 -2.28038,-9.29452 -12.19459,-12.66948 -10.58398,-16.35937 -10.33562,4.47293 -17.84091,-11.44163 -25.83008,-11.85938 z m 181.5293,34.48047 c 4.17938,0.50597 10.11328,12.95574 -2.36914,5.46289 l -0.47852,-0.80664 c 0.25587,-3.66679 1.45453,-4.82491 2.84766,-4.65625 z m -70.78711,30.28906 c -1.95604,0.16593 -3.74882,2.24682 -4.69922,7.33399 -7.66409,-0.0189 -36.64662,-3.34912 -16.37305,5.5664 9.59864,-0.67884 18.78014,4.94302 24.75977,7.9375 9.51868,-4.5896 2.18061,-21.33567 -3.6875,-20.83789 z m -114.46094,3.97071 c 7.562,-0.63349 17.29342,9.54114 4.4668,10.53515 -14.25215,6.95441 -23.92951,-10.56021 -4.4668,-10.53515 z m 56.61133,54.07031 c -3.07419,3.2e-4 -4.15809,1.73231 0.46875,6.83984 -1.64346,2.4665 -4.04697,3.77496 -6.37891,4.23047 h 10.04492 c 2.79896,-3.57873 6.55142,-5.74043 10.59961,-4.26367 1.04178,-1.99805 -9.61072,-6.80717 -14.73437,-6.80664 z"
         transform="matrix(-0.26458333,0,0,0.26458333,230.2761,-4.3386454)" />
      <path
         id="path1018"
         style="fill:#0e0c07;stroke-width:0.999999"
         d="m 278.22852,82.294922 c -3.36274,4.959447 -4.36508,12.364716 4.19921,14.535156 1.00838,7.477352 3.59745,15.143642 -8.91796,9.195312 3.52157,20.25173 -24.61754,-31.887171 -23.125,-3.19727 18.76595,-1.37634 1.98384,6.34918 -6.83985,9.28126 10.5563,3.94546 9.71593,26.48754 0.94531,25.2246 4.67418,4.23376 16.31923,1.74624 18.43165,7.22266 0.21883,-17.04796 16.76996,-21.45873 27.33007,-22.4375 5.59325,-14.12356 7.73072,-25.449105 -2.0039,-35.36914 0.12641,-1.785879 0.0786,-3.238404 -0.0801,-4.455078 z m 28.07812,0 c -0.95186,2.528805 -0.52637,5.55517 2.11133,8.773437 -15.08534,6.72341 10.3027,13.235311 12.25195,2.75586 8.18555,9.471451 -16.19811,10.451831 -10.80469,21.763671 -4.93821,10.81198 -3.89207,33.78594 5.28125,19.20899 12.61217,7.15138 21.8464,-7.0032 33.25782,6.81835 10.39313,1.07585 -4.57274,14.16504 9.875,20.43555 4.3765,6.07146 -8.47885,11.04943 2.88086,19.125 5.71442,13.87953 -14.4687,-18.70141 -7.97657,0.93555 8.45137,7.67029 6.85771,19.60478 17.44141,25.83203 -22.33984,8.74063 26.83121,28.33871 2.5293,43.16406 -4.37753,4.52412 -1.82742,5.80858 2.90625,1.54492 10.44688,-13.67415 22.81718,-26.04393 21.64257,-44.61914 -5.94357,-3.11133 -5.2536,-8.38837 -16.88476,-2.8789 -6.93789,-0.1386 13.17525,-17.12484 -2.74805,-10.64453 -15.58639,2.52335 5.64977,-21.15805 -9.37695,-27.70313 -10.50901,-6.67655 3.47978,-16.25503 -3.27344,-18.49023 18.28483,0.20556 -3.53201,-13.45966 7.25,-16.19727 -1.31573,-7.21093 -4.14152,-41.128596 -16.3418,-20.21094 1.64954,4.01319 22.15461,10.40075 8.125,20.36914 -4.61673,-3.95835 -3.24807,-21.64439 -9.79882,-6.41406 -4.86174,-15.07243 -10.86321,-32.450518 -22.33594,-43.568358 z m 41.1582,0 c -2.54811,2.897236 -4.04661,10.286858 1.46094,9.146484 3.48395,-2.696877 8.48402,-7.101082 6.97656,-9.146484 z m 42.26954,0 c 0.16266,1.425563 0.55212,3.188078 1.23828,5.341797 -0.52876,2.547333 -0.3398,12.437991 4.36718,6.841797 5.78444,-3.105985 5.33303,-8.305666 3.03711,-12.183594 z m -12.01368,8.470703 c -4.65947,0.246598 -9.81459,3.795693 -4.75976,8.667969 -13.65997,-6.491789 7.94943,7.135706 9.69531,-2.322266 2.01127,-4.731771 -1.31152,-6.537501 -4.93555,-6.345703 z m -87.04687,38.531255 c -4.55732,2.37687 -4.57944,10.37252 -11.61719,3.7246 -0.96416,1.42202 -1.29961,18.60698 2.67188,13.32227 1.23772,-8.53178 27.03413,-13.60539 8.94531,-17.04687 z m 93.85937,30.73046 c -4.26972,-0.20903 -8.02157,1.26746 0.49414,6.01758 1.11005,-0.1406 1.46558,-1.21966 2.1211,-1.92578 6.44165,-1.98835 1.65449,-3.88276 -2.61524,-4.0918 z m -93.85937,16.53711 c -3.71881,0.11041 -9.30383,2.92172 -2.24414,6.61328 l 0.64062,-1.01562 0.0625,-0.0996 c 6.19606,-4.03634 4.43342,-5.58392 1.54102,-5.49805 z m 46.1289,9.9375 c -3.66074,-0.10561 -11.51584,11.50336 1.33985,5.11133 0.63406,-3.73888 -0.1196,-5.07612 -1.33985,-5.11133 z m -94.50585,19.26563 c -2.79044,-0.004 -11.01888,11.77661 -0.66211,7.10937 2.01231,-5.30249 1.75401,-7.10778 0.66211,-7.10937 z m 108.97851,21.01562 c -6.63687,-0.15817 -17.32165,4.43948 0.53516,6.90821 5.97206,-5.00642 3.44697,-6.8133 -0.53516,-6.90821 z m 12.36328,46.07227 c -3.33995,0.45566 -12.56036,10.52237 -3.11914,10.08594 5.00511,-7.92638 4.86864,-10.32462 3.11914,-10.08594 z m -33.75195,8.66406 c -1.8174,-0.0316 -3.79513,1.38344 -4.59375,5.70117 11.81449,1.4388 8.59202,-5.6316 4.59375,-5.70117 z m 17.0957,18.63672 c -3.73552,-0.0496 -7.64699,1.57377 -9.82812,5.41992 -7.35459,-14.79786 -7.47018,24.21802 1.9707,21.9668 0.48563,-8.3824 15.27994,1.99163 14.06641,-12.65235 7.41338,-8.45034 0.92246,-14.63971 -6.20899,-14.73437 z m -99.82031,13.42383 c -1.30136,0.0667 -2.67822,1.53108 -3.79492,5.20312 12.4611,0.0521 -14.00997,18.57766 4.32422,10.21875 6.59077,-3.22688 3.37478,-15.62187 -0.5293,-15.42187 z m 120.25586,19.39844 c -8.50054,0.0467 -27.995,13.52331 -8.36133,19.88086 -4.42753,13.81031 14.67391,24.49538 -2.68164,36.66406 -14.51977,12.01843 25.18877,20.38619 10.95117,39.20703 -8.42944,10.80121 20.62855,10.57443 0.54297,20.0957 -7.26531,9.86385 -7.31908,29.58037 5.73242,21.24024 5.07598,1.88719 7.00991,21.76925 12.88477,11.92578 9.52834,-8.25525 18.20528,-30.9905 -0.44336,-33.70703 11.25014,-17.29123 2.46217,-48.05346 15.79101,-59.07032 17.36383,9.71345 -13.0602,25.54432 5.94727,34.62891 9.99352,-3.22163 -6.0026,-24.82638 14.96875,-23.17578 7.24796,2.35343 5.71891,18.3896 13.3418,5.25 3.84491,-13.06363 -20.78231,-3.9596 -5.50977,-13.38086 12.2852,-3.11091 2.14195,-18.53481 1.5918,-4.17969 -17.60852,-20.427 25.35119,-21.24426 38.41211,-21.96094 23.59916,-1.62794 47.0179,1.0795 70.45508,-3.78906 9.73949,-2.78074 43.50547,4.66895 38.56445,-9.00976 -26.40701,-11.35222 -56.23874,-5.68613 -83.92383,-11.3711 -30.46741,-1.27239 -60.85038,-6.47118 -91.40234,-4.21875 -8.6061,-9.79635 -23.27759,8.9578 -33.34961,-2.66406 -0.17484,-1.6721 -1.55006,-2.376 -3.51172,-2.36523 z m -38.38086,6.42578 c -7.96074,-0.0591 -23.96931,4.931 -5.98828,2.64453 3.14313,-0.86673 5.93322,8.0422 7.90625,1.72265 3.65539,-3.27005 1.70055,-4.34031 -1.91797,-4.36718 z m -109.52734,17.67578 c -1.68525,-0.0477 -2.97736,1.11975 -3.19922,4.1875 -12.72786,-5.42694 -7.30405,22.36826 -8.30078,32.03711 0.35716,7.96615 11.47646,9.71521 -0.29102,9.57812 -7.90881,10.1367 5.86568,16.75115 -5.69922,23.23633 l 1.48047,0.0469 3.07812,-1.07813 c 5.11624,-8.69628 16.28414,-22.56851 15.80274,-6.45703 10.99725,-2.23601 8.75791,-10.52616 1.46875,-11.73047 8.83328,-12.39893 11.00738,16.58826 25.30469,2.88672 5.99093,-8.3257 30.25121,3.76556 22.55859,-7.08984 -8.61532,-2.19856 -31.31294,4.95312 -31.69531,-4.07618 12.95006,3.05156 25.352,-9.39442 11.54297,-19.78125 -8.533,-5.62718 -19.96248,-9.59054 -24.63477,-7.01172 6.22395,-3.5256 -2.36028,-14.60495 -7.41601,-14.74804 z m 2.04882,4.95508 c 4.53614,0.36536 2.41259,15.16997 -6.74218,5.875 2.97825,-4.51434 5.23014,-5.99679 6.74218,-5.875 z m 16.66797,18.42773 c 2.94604,-0.0161 4.28821,2.43371 -1.18359,8.98438 1.72668,2.32336 16.16358,-4.69408 5.68359,4.35937 -2.19749,0.83578 -7.3758,3.46056 -8.49609,-0.26758 -10.28199,-6.17042 -0.91397,-13.04927 3.99609,-13.07617 z m 178.30664,6.42969 c 4.44664,-0.57976 2.59701,19.10516 -5.22265,6.4082 2.23962,-4.49573 3.9776,-6.24587 5.22265,-6.4082 z m -133.36523,19.46094 c -1.63306,-0.21558 -4.28121,1.52282 -7.88086,6.61132 -7.94324,0.0389 -14.44393,3.49933 -16.67578,5.61133 -14.12387,-8.80698 -17.3793,0.86918 -9.56055,11.86133 -9.94586,22.64511 -43.92867,-3.43394 -52.16211,15.14648 8.34444,12.40627 -14.31736,17.92438 -7.91601,32.37696 1.15309,2.94749 0.0913,7.10377 -1.29688,11.30273 h 36.94336 c -5.28646,-15.4168 2.56738,-6.9034 6.31641,0 h 11.46484 c -3.05787,-14.62028 28.4448,-0.0999 15.87695,-19.26562 -11.59298,-19.4888 22.4705,-11.86319 27.51954,-27.75391 20.23203,-6.01822 -0.0971,-18.37758 -11.01954,-19.23633 10.1129,-2.7895 12.56401,-16.10338 8.39063,-16.65429 z m 8.00781,8.35351 c -3.36175,-0.10725 -6.67345,2.49855 -3.81836,7.76367 -12.99768,1.07849 6.86561,2.25656 7.9336,0.75 2.65763,-5.58657 -0.75349,-8.40642 -4.11524,-8.51367 z m 40.25195,13.70313 c -5.64758,-0.007 -13.18957,2.35594 -0.61718,5.20312 8.25668,-3.75949 5.00975,-5.1979 0.61718,-5.20312 z m -58.30664,0.75195 c 1.12634,-0.009 2.89528,0.12724 5.51368,0.44727 17.35404,5.56025 5.22205,15.22399 -5.82422,12.6914 -15.52078,0.58167 -13.99874,-8.81997 0.41797,-4.8789 15.62469,-1.01852 -7.99175,-8.19644 -0.10743,-8.25977 z m -24.98828,11.29492 c 5.8838,-0.0308 6.06735,15.08374 -6.13672,4.48438 2.39434,-3.28056 4.48926,-4.47575 6.13672,-4.48438 z m -13.67773,5.31445 c 1.365,0.0715 3.36212,0.81846 6.15039,2.49024 -2.32407,8.73256 17.38905,10.72584 1.44726,17.32422 -1.55629,-0.008 -2.688,-1.52652 -2.73437,-2.97461 -4.82811,-4.7744 -10.77827,-17.14953 -4.86328,-16.83985 z m -29.48242,28.7461 c 2.04684,-0.12395 2.98037,2.43672 -0.10547,8.60351 -0.23433,0.3583 -9.85347,7.87932 -7.14453,3.23243 0.14435,-7.07938 4.61834,-11.67658 7.25,-11.83594 z m 47.75195,10.72461 c -1.20029,0.19885 -2.45477,1.89173 -3.64649,4.02148 h 6.72266 c -0.91066,-3.12325 -1.96882,-4.20494 -3.07617,-4.02148 z"
         transform="matrix(-0.26458333,0,0,0.26458333,230.2761,-4.3386454)" />
    </g>
  </g>
</svg>
