<?xml version="1.0" encoding="UTF-8" standalone="no"?>
<!-- Created with Inkscape (http://www.inkscape.org/) -->

<svg
   width="100mm"
   height="100mm"
   viewBox="0 0 100 100"
   version="1.1"
   id="svg5"
   inkscape:version="1.1 (c68e22c387, 2021-05-23)"
   sodipodi:docname="favicon3.svg"
   xmlns:inkscape="http://www.inkscape.org/namespaces/inkscape"
   xmlns:sodipodi="http://sodipodi.sourceforge.net/DTD/sodipodi-0.dtd"
   xmlns="http://www.w3.org/2000/svg"
   xmlns:svg="http://www.w3.org/2000/svg">
  <sodipodi:namedview
     id="namedview7"
     pagecolor="#ffffff"
     bordercolor="#cccccc"
     borderopacity="1"
     inkscape:pageshadow="0"
     inkscape:pageopacity="1"
     inkscape:pagecheckerboard="0"
     inkscape:document-units="mm"
     showgrid="false"
     inkscape:snap-global="false"
     inkscape:zoom="0.67081229"
     inkscape:cx="142.36471"
     inkscape:cy="137.89252"
     inkscape:window-width="2560"
     inkscape:window-height="1377"
     inkscape:window-x="-8"
     inkscape:window-y="-8"
     inkscape:window-maximized="1"
     inkscape:current-layer="layer1" />
  <defs
     id="defs2" />
  <g
     inkscape:label="Calque 1"
     inkscape:groupmode="layer"
     id="layer1">
    <g
       id="g1144"
       transform="matrix(1.0186137,0,0,1.0186173,-25.728629,-39.736071)">
      <path
         id="path1168"
         style="fill:#d0ccce;stroke-width:0.999999"
         d="m 213.0625,109.19727 c -4.36253,4.13004 -7.69018,9.50623 -9.4375,16.39062 -3.2466,16.94167 -5.11515,34.017 -6.19922,51.16211 v 250.55859 c 0.14037,2.76488 0.29368,5.52886 0.46289,8.29297 1.39378,14.18462 1.32639,30.81333 6.39649,44.64063 h 127.39257 c 1.80648,-29.77794 1.57823,-59.72961 3.2793,-89.54297 -5.6583,-32.70032 33.97743,-14.30228 52.88281,-14.81055 51.78259,0.70847 97.96664,-26.14589 146.04102,-41.53515 13.14573,-5.16228 44.59421,-5.1983 31.43945,-26.96485 -13.63101,-16.88063 -38.86267,-16.0261 -54.70312,-31.08594 -15.62903,-13.18849 -38.82208,-14.85437 -51.51953,-31.60156 -23.9955,-17.99547 -53.25867,-35.56725 -84.50977,-29.72656 -19.55137,-8.16604 -15.53805,-32.30357 -17.99414,-49.4707 -8.69252,-17.31064 -7.93721,-39.14612 -16.41602,-56.30664 z"
         transform="matrix(0.26458333,0,0,0.26458333,-26.977097,10.118004)" />
      <path
         id="path1166"
         style="fill:#c9b3a1;stroke-width:0.999999;fill-opacity:1"
         d="m 213.07812,109.19727 c -4.35681,4.11728 -7.68739,9.48191 -9.44335,16.38476 -3.25359,16.95451 -5.12386,34.04235 -6.20899,51.20117 v 250.01172 c 0.25779,5.71015 0.55955,11.41793 0.91797,17.125 0.97427,11.62946 1.83518,24.90903 6.07617,36.32227 h 125.99414 c 1.18076,-29.14649 3.57888,-58.29805 2.65821,-87.42774 -3.83873,-23.7072 18.95896,-25.9796 36,-19.98047 48.04563,8.30805 93.92969,-12.21934 137.41601,-29.70117 18.18319,-10.85792 47.79986,-8.35715 60.00781,-24.74609 -12.03961,-3.07356 -31.16344,0.36713 -46.34765,-1.55664 -5.05372,-7.7795 20.72172,-5.06845 29.37109,-6.83399 20.29334,1.0872 6.77828,-13.14219 -4.44922,-14.82031 -5.82663,-2.97578 -34.70255,-3.41388 -25.08789,-7.17383 7.00604,-6.40136 -20.53152,-6.94647 -27.14648,-5.89843 -17.16258,8.91911 -38.0008,13.6785 -55.61328,14.16992 -18.255,-3.72588 -42.14356,7.45689 -60.97461,-2.2168 6.25119,-6.62573 44.25337,2.16594 49.79883,-9.40234 9.61136,4.11251 20.18647,-1.12106 29.74804,0.38672 -12.7648,-17.13989 11.65355,2.66233 12.5293,-9.10157 1.26043,-1.42933 17.84455,6.81067 10.46289,-3.66406 2.48555,-6.25413 8.12571,-11.25234 -4.64453,-6.74219 -5.43898,1.93008 -34.69667,11.4153 -25.44531,2.48242 16.53453,-0.26773 19.56529,-20.04242 4.86914,-24.8125 -10.89827,2.67916 -23.75193,4.82718 -37.13086,4.04297 -10.35066,3.31241 -43.67672,7.5398 -37.57813,-9.23437 3.57941,-0.21103 28.26488,-7.78428 17.0293,2.39844 11.0626,10.0091 11.48454,-22.01292 2.13086,-21.31055 -13.75272,11.79305 -7.22894,-11.22631 -19.06446,-1.80273 -21.20638,4.30261 -22.43336,-34.74157 -23.35351,-51.1504 -4.83401,-19.03383 -11.78851,-37.62796 -15.75,-56.94921 z m 111.00782,57.83593 c 1.5005,0.46206 6.5039,19.9398 6.58398,26.36133 -3.22622,15.25816 -5.83516,-14.12681 -6.23242,-16.24609 -0.99023,-7.56468 -0.93871,-10.29604 -0.35156,-10.11524 z M 509.9082,287.58789 c 1.72616,0.0734 1.72845,1.04513 -2.65039,3.71094 -17.42959,1.77594 -1.7609,-3.8985 2.65039,-3.71094 z m -30.12695,10.62695 c 2.29787,-0.082 3.35762,1.13312 0.87891,4.875 -1.45563,0.23393 -2.91155,0.46921 -4.36719,0.70313 -16.34325,3.31976 -2.38405,-5.36856 3.48828,-5.57813 z m -19.20508,3.43946 c 1.76057,0.10509 1.05009,1.66641 -5.51367,5.99023 -19.62833,2.99015 1.01444,-6.25879 5.51367,-5.99023 z"
         transform="matrix(0.26458333,0,0,0.26458333,-26.977097,10.118004)" />
      <path
         id="path1164"
         style="fill:#b4acac;stroke-width:0.999999"
         d="m 212.93945,109.19727 c -4.34626,4.13041 -7.65628,9.51236 -9.3789,16.42968 -3.20772,16.88429 -5.05801,33.89951 -6.13477,50.98243 v 248.38281 c 0.55055,18.73435 1.40253,37.56446 7.26172,55.25 h 125.31055 c 2.66471,-33.49136 4.06214,-67.26069 3.41992,-100.73633 9.57416,-22.00864 37.39656,-0.33077 55.50586,-5.03125 49.06195,1.50871 92.37272,-24.38087 137.84765,-38.61328 8.83786,-6.31136 47.64907,-7.79299 36.15235,-20.33008 -13.58612,4.30604 -25.03507,-1.02176 -39.01172,3.44727 -19.82389,10.71847 -42.27871,11.63823 -64.25586,12.46093 -19.99325,5.96586 -41.25353,7.04881 -61.9082,3.63282 0.0842,-2.99761 24.65631,-2.51445 34.16601,-3.86524 24.60353,-5.70157 50.41941,-2.32898 74.92383,-9.32226 11.81953,-17.88885 35.5118,-7.42566 51.92383,-16.41211 -9.87878,-3.41169 -18.16169,-14.61395 -35.05274,-10.36328 -16.03147,-9.81824 -32.6293,4.08341 -47.33398,9.625 -21.32289,5.52227 -43.64917,5.86021 -65.50586,7.76171 -17.54356,1.31067 -0.99826,-8.33519 7.42774,-5.86718 18.24123,2.07491 33.53521,-8.083 50.5957,-7.32813 5.79576,-0.63537 41.34201,-20.87351 21.10351,-13.66601 -16.28397,8.08684 -37.94171,8.3971 -53.22656,12.21679 -17.02733,-3.68825 -35.2602,3.47095 -52.82422,1.50586 -6.54533,-6.48222 -34.09925,3.36204 -28.45898,-4.62695 4.81777,-13.87274 24.15951,-2.67705 27.92773,-9.07617 5.26625,4.60839 11.90211,-1.45194 19.78906,3.40625 -1.33944,-6.45298 11.00494,-8.17763 20.23243,-6.56446 8.96882,-13.12083 8.00824,10.86663 18.1582,4.32618 -4.66729,-14.97078 21.90818,-7.1718 32.04687,-15.55079 21.70167,-11.20769 -12.88853,-1.10402 -20.96484,1.3125 -18.83999,2.71242 -3.35058,-7.02474 4.4082,-10.30859 15.67119,-11.39291 -3.86472,-14.78068 -13.63281,-9.87695 -10.21975,-9.31019 -7.16044,7.84127 -19.89648,0.37304 15.32109,-8.66672 -9.19966,-4.31483 -14.75781,-1.67578 -13.29783,-1.24407 -40.24233,3.40456 -43.72852,-9.79297 14.89983,-2.10205 15.55899,-11.02281 -0.61719,-13.21093 -4.14034,-10.25635 5.11949,3.29976 6.45703,-5.35547 -9.25669,-15.98733 -16.7834,-34.59846 -15.20898,-54.93945 -5.00503,-19.59289 -11.97229,-38.77246 -16.31055,-58.59961 z m 110.90821,56.5039 c 1.32248,-0.60753 6.76845,21.3288 7.1289,28.59375 -2.86004,11.72749 -7.88113,-16.15349 -6.73633,-19.09375 -0.81626,-6.59042 -0.8334,-9.29749 -0.39257,-9.5 z m 58.58007,50.45313 c -5.07824,-0.32594 -9.98191,15.61213 4.09571,15.58203 7.761,8.1098 11.18751,-5.77637 0.34375,-8.64063 -1.03516,-4.91703 -2.74671,-6.83276 -4.43946,-6.9414 z m -19.96093,35.53515 c 11.2644,10.22445 25.43201,-0.20336 38.46484,5.23438 4.92047,16.33772 -13.81047,-6.69833 -13.95508,5.80273 -3.13868,2.67575 -43.93662,-4.34023 -24.50976,-11.03711 z m 56.25781,12.3711 c 2.28636,0.12819 5.08597,1.7052 8.67187,3.17968 18.18897,4.47133 -1.71675,6.61032 -9.25976,3.91016 -11.99492,3.73367 -24.82292,2.57228 -37.01172,0.52149 -2.4182,-9.02727 23.51135,1.31833 32.00586,-2.09571 1.53371,-4.3228 3.30739,-5.64382 5.59375,-5.51562 z m 79.93164,39.03515 c 1.45498,0.11478 0.64629,1.90507 -5.42969,6.87305 -16.79636,3.4825 1.7114,-7.16637 5.42969,-6.87305 z"
         transform="matrix(0.26458333,0,0,0.26458333,-26.977097,10.118004)" />
      <path
         id="path1162"
         style="fill:#a1847b;stroke-width:0.999999;fill-opacity:1"
         d="m 199.23828,109.19727 c -0.7272,1.37275 -1.32982,2.90912 -1.8125,4.60156 v 88.7539 c 1.03066,7.92324 0.58615,15.78658 0,23.69727 v 253.99219 h 132.17774 c 2.35618,-32.10551 2.99232,-64.40708 4.17773,-96.61914 1.48662,-28.52618 35.60981,-5.75044 52.30859,-10.01953 51.41969,3.70628 96.32421,-25.45266 144.08399,-39.16602 8.72829,-5.71184 37.24367,-6.09721 31.95312,-16.73242 -16.56986,10.04079 -33.92416,-2.05762 -49.70312,10.95117 -19.23708,14.02443 -43.69389,3.00023 -64.77149,12.71289 -18.10521,0.26147 -35.83106,-2.82497 -53.25976,5.22656 -14.81956,-7.85232 -34.4887,-12.74736 -53.34961,-8.49804 0.39956,-15.93051 27.22334,-5.92984 37.06055,-5.20313 19.87216,1.69656 39.92074,-2.96931 59.8789,-3.96875 22.60418,-5.43835 47.44043,2.05028 68.33203,-10.07812 15.59226,-15.70253 34.95087,-3.36921 50.79102,-14.4375 -9.38419,1.62547 -9.45143,-7.2607 -16.81641,-7.9375 -18.16686,-4.01443 7.49874,13.14264 -8.69336,8.83203 -4.3528,-14.86371 -6.55378,-3.09372 -18.08984,0.23242 -14.33756,7.76385 7.92469,-3.16723 -2.39648,-9.48828 -21.02816,-1.98509 -41.79534,17.20025 -65.0586,15.875 -14.4525,-3.03285 -42.66273,9.47323 -47.83203,-3.50195 -9.66513,-8.94131 -25.62313,-8.83557 -41.12695,-8.94922 -13.44266,9.79229 -1.46515,-10.77042 -10.01563,-11.63672 8.8389,13.30933 -22.21236,12.38673 -16.74609,-4.9961 7.99145,8.02949 8.03641,0.28316 18.21484,-1.36132 14.87496,7.60242 26.85975,-3.44574 40.51367,2.8457 -0.74368,-1.00086 3.04843,-9.53399 11.83594,-5.5332 8.14135,5.69057 32.82243,-0.18584 29.80664,-3.60352 -23.68316,0.30872 -47.60948,-2.32455 -71.57226,-0.57422 -13.51051,-6.59353 3.80124,-6.69415 10.15429,-2.51953 26.11868,-9.85198 -11.34046,-5.51375 -14.41015,-16.75586 7.24706,-1.94842 11.15113,-10.78228 -2.39649,-11.69336 -19.98561,7.81371 -2.8927,-16.53825 8.71485,-12.1582 0.23742,17.33794 8.35097,-10.84786 -5.55469,-6.34766 -1.23963,-5.33937 20.56038,-5.04558 7.01172,-14.46484 -8.00108,-20.92099 -6.01612,-44.33187 -13.87891,-65.44531 -6.47103,-8.90096 -5.18235,-24.92822 -8.42578,-36.03125 z m 189.82031,175.12695 c 0.0521,0.0701 0.12235,0.10639 0.21875,0.0957 -0.0733,-0.0347 -0.14556,-0.062 -0.21875,-0.0957 z m -66.36718,-121.4043 c 4.74264,0.83651 7.02189,23.95743 9.10156,33.98828 -11.35945,1.13584 -6.67562,-24.46601 -9.10156,-33.98828 z m 22.57812,88.22852 c 2.30306,0.13805 4.63142,1.59103 5.45703,5.50976 -1.33596,0.12719 -2.66426,0.35483 -4.00586,0.41602 -11.46099,-0.16906 -6.51791,-6.22951 -1.45117,-5.92578 z m 84.91406,7.86328 c -4.61733,0.14988 -9.67845,1.70722 -7.95703,5.93555 2.53053,-1.30443 5.32362,-2.24635 8.20313,-2.23047 10.89246,-1.76578 5.69047,-3.89779 -0.2461,-3.70508 z m -19.34179,2.46875 c -4.85175,-0.32115 -17.83174,7.14583 -5.86524,7.49805 1.00282,0.69435 4.34539,1.46236 4.33594,-0.83204 4.25942,-4.76461 3.73463,-6.52004 1.5293,-6.66601 z m -0.008,36.5918 c -3.71041,0.15325 1.62673,5.27863 9.14258,4.57226 2.45437,3.0221 7.15905,2.00687 10.51367,2.01367 15.71787,-4.14181 -6.68927,-8.67277 -12.67578,-4.68164 -3.50148,-1.45388 -5.74366,-1.95538 -6.98047,-1.90429 z m 91.69141,2 c 7.13638,0.0915 -12.55708,12.84586 -18.18164,15.10742 -16.39363,6.12225 8.05156,-13.84419 11.19727,-13.70703 3.42147,-0.99858 5.66282,-1.41733 6.98437,-1.40039 z m -131.33398,2.95507 c 1.77841,-0.0172 3.94127,1.18585 6.05859,4.66407 -13.26158,6.42576 -11.39383,-4.61251 -6.05859,-4.66407 z m -43.03125,23.90821 c 1.19961,0.14548 2.81296,1.68953 4.80078,5.65039 -8.08921,11.15642 -9.08513,-6.16997 -4.80078,-5.65039 z"
         transform="matrix(0.26458333,0,0,0.26458333,-26.977097,10.118004)" />
      <path
         id="path1160"
         style="fill:#a97c63;stroke-width:0.999999;fill-opacity:1"
         d="m 197.42578,109.19727 v 67.26953 c 0.13263,3.64376 0.14187,7.26136 0,10.85351 v 21.44141 c 3.62201,6.53898 10.19115,11.94075 9.14844,17.51562 -4.2453,-1.99405 -7.26435,-1.43576 -9.14844,0.27735 v 12.0957 c 1.61392,1.43157 4.02484,1.88858 7.18164,0.37109 -3.45365,6.32136 -11.1902,5.64332 -1.66797,12.78711 -6.08238,4.94779 -5.35715,12.63787 -5.51367,19.98438 v 122.03515 c 0.13877,3.38366 0.11389,6.83397 0,10.32422 v 76.08985 H 329.0957 c 1.86557,-7.81659 0.45871,-19.81954 1.64063,-27.71485 1.68385,-23.62715 2.46144,-47.15965 2.02344,-70.79296 2.44275,-23.61192 30.76467,-7.04958 46.00195,-9.06641 37.50373,5.44067 73.02166,-10.37033 107.39062,-22.92188 24.71543,-10.53125 51.46248,-17.445 75.73438,-27.88867 -9.06939,0.72129 -25.24744,2.28925 -37.64063,3.49024 -18.43423,8.1042 -36.9184,18.55428 -57.87695,16.02343 -21.67029,3.66694 -43.58032,6.15311 -65.77148,7.94336 -21.91767,-3.46904 -44.14682,-6.66261 -66.47852,-8.70703 -16.14402,6.76759 -10.72076,-24.2663 -0.64453,-7.51172 14.95207,-3.78615 33.59736,-4.96105 50.4668,-0.49023 18.56774,-0.48941 37.31979,-0.85779 55.80468,-4.01953 21.95524,-5.28961 45.69633,1.64564 66.25586,-9.57617 15.29537,-15.22731 33.82109,-3.99375 49.86133,-14.56641 -7.70298,-0.0555 -8.10753,-6.63661 -14.66992,-7.76758 -19.1486,-5.14109 7.35655,15.50728 -11.54102,7.58594 -1.03819,-15.48223 -4.59744,0.50805 -13.54101,0.34961 -2.41991,0.64752 -4.06285,1.24702 -5.15625,1.73437 1.06277,-1.14057 2.26283,-3.17462 2.6289,-6.45703 -16.74168,-15.65595 -36.72392,14.17796 -57.66992,10.38086 -19.52175,1.78146 -39.38532,4.6723 -59.06445,3.05274 8.22356,-7.16381 -13.34547,-4.14313 -4.02539,-10.13672 -16.97051,-3.34953 -40.04344,-5.82335 -53.82617,0.66601 -5.11083,-8.64962 -20.89785,-20.97956 -2.79883,-23.92773 19.52896,0.95172 38.85071,2.92843 58.17773,-2.07813 -12.34548,-9.27765 -44.3756,4.71529 -62.73828,-5.73828 -3.92072,-16.65505 12.65047,0.93084 20.47852,-2.83203 14.04715,-10.78089 -8.39839,-13.52378 -8.61133,-7.58008 -5.13542,2.30973 -10.65251,-18.34954 -1.32227,-24.67773 11.58471,-6.10246 9.39085,-15.10391 22.6875,-20.70899 -8.68409,-12.29502 -8.43775,-39.1399 -12.89453,-57.6914 -8.13006,-14.22333 -6.52793,-35.03665 -14.09179,-49.41992 z m 21.30078,39.58984 c 11.31297,1.66863 -3.62677,26.2875 11.25,32.42578 l -0.58984,3.61328 c -14.79912,-2.73955 -14.36352,-21.7614 -10.66016,-36.03906 z m 103.84961,12.36523 c 4.99607,0.7731 8.18985,26.04792 9.40039,34.94922 -12.66183,5.46432 -6.66494,-27.12967 -10.42383,-34.76562 0.34904,-0.17836 0.69037,-0.23514 1.02344,-0.1836 z m -64.83398,19.85352 c 3.41822,0.20769 12.85107,9.26719 5.6289,16.48437 -8.07975,5.56661 -2.90013,-7.11293 -4.43164,-10.27734 -3.06129,-4.56838 -2.751,-6.30144 -1.19726,-6.20703 z m 42.99219,9.76953 c 3.83627,-0.10657 9.56005,4.09663 6.30664,11.5332 3.47003,14.82418 -3.39716,3.068 -6.72266,-2.95507 -4.4097,-5.80542 -2.56775,-8.49524 0.41602,-8.57813 z m 47.48437,13.17383 c 3.3025,-0.0945 6.54471,1.30841 5.82422,5.66016 -1.3331,1.03983 -3.24854,1.31985 -4.79492,0.5957 -12.20813,-1.77843 -6.53347,-6.09839 -1.0293,-6.25586 z m -100.49219,18.92969 c 3.04564,-0.40836 7.30418,8.57267 4.10742,14.70898 3.10306,-0.0909 14.04699,2.81927 4.56055,10.37891 -6.47948,-3.83879 -26.96279,-8.09169 -11.25,-16.9961 -0.0127,-5.62757 1.14885,-7.89964 2.58203,-8.09179 z m 4.10742,14.70898 c -0.80638,0.0236 -1.11138,0.23849 -0.35742,0.64063 0.13162,-0.2087 0.24473,-0.42431 0.35742,-0.64063 z m 30.13086,21.63281 c 3.2226,0.0818 8.15874,6.53376 4.93555,14.00586 -2.70895,5.04158 -6.80446,0.47749 -5.98242,-3.51172 -2.56175,-7.62286 -1.15806,-10.55008 1.04687,-10.49414 z m 84.59571,3.30274 c -3.15019,-0.0474 -5.59762,1.59321 -4.60938,6.55664 1.01453,2.27837 5.45949,4.36803 6.53906,0.85351 15.33648,0.9669 5.00072,-7.30594 -1.92968,-7.41015 z m -75.14844,24.79101 c 2.57723,0.17651 8.0778,12.34756 7.48242,18.08008 1.99295,15.83681 -10.46852,-4.14303 -8.33789,-9.1543 -0.88384,-6.60763 -0.316,-9.00601 0.85547,-8.92578 z m 211.0957,12.72071 c 7.18288,0.007 -12.07834,12.61043 -17.62304,15.0332 -17.3878,6.70976 7.24707,-13.65482 10.65625,-13.5957 3.39888,-1.00739 5.63663,-1.43876 6.96679,-1.4375 z m -129.18359,4.0664 c 2.94561,-0.17582 5.05909,0.87995 1.73437,4.54297 l -0.96484,0.11914 -1.10547,0.13477 c -11.79513,-0.78594 -4.57341,-4.50384 0.33594,-4.79688 z m -76.63477,21.14258 c 1.96796,0.11058 3.38911,4.15337 0.0801,9.84766 1.65712,6.99819 -4.27956,0.33719 -3.69531,-1.89649 0.22344,-5.74444 2.0846,-8.03718 3.61523,-7.95117 z m -39.90039,8.4707 c 6.16862,-0.5707 11.30963,15.45996 -0.0898,18.25782 -6.94666,12.39488 -0.0549,-10.59548 -5.8457,-11.04883 1.71038,-4.98413 3.87934,-7.01875 5.93554,-7.20899 z m -0.19336,30.5918 c 4.55882,-0.0423 14.28016,19.45189 9.49024,29.08789 l -0.19922,1.94727 0.0312,2.9707 c -14.14646,2.91625 -2.58804,-25.6501 -10.54883,-33.33203 0.33935,-0.45505 0.75496,-0.66945 1.22656,-0.67383 z m -21.53711,28.72852 c 1.19171,-0.14143 2.3509,1.85837 2.31055,7.8164 -0.33879,1.31611 1.20278,3.88292 -1.36914,3.76953 -5.60984,-3.24194 -3.21648,-11.31594 -0.94141,-11.58593 z m 66.09961,22.73828 c 2.26979,-0.0427 4.26161,1.51653 3.42578,6.12109 -0.57187,0.53685 -1.14663,1.07265 -1.71875,1.60938 -11.38646,-1.72747 -6.04025,-7.6489 -1.70703,-7.73047 z m -38.11523,8.49414 c 3.61134,-0.30329 7.20247,7.80817 3.89062,15.50781 -3.38294,13.55679 -9.56129,-0.89977 -8.59375,-6.83594 0.91296,-6.04517 2.81147,-8.51301 4.70313,-8.67187 z"
         transform="matrix(0.26458333,0,0,0.26458333,-26.977097,10.118004)" />
      <path
         id="path1158"
         style="fill:#764833;stroke-width:0.999999;fill-opacity:1"
         d="m 197.42578,109.19727 v 56.83007 c 0.75006,6.7066 0.37547,13.36747 0,19.98438 v 18.30273 c 0.3286,3.06267 0.87851,6.11609 1.82617,9.15821 9.88561,5.31463 11.41831,16.15563 -1.82617,13.00781 v 11.68359 c 1.8777,1.18415 4.50814,1.45152 7.30664,0.77539 -5.40397,7.18995 -10.63447,5.56971 -1.29883,12.97266 -7.54026,5.2297 -5.65148,13.87721 -6.00781,21.74805 v 120.16796 c 0.13877,3.38366 0.11389,6.83397 0,10.32422 v 76.08985 h 131.39063 c 1.78541,-18.953 2.42507,-38.20208 3.36132,-57.25977 4.64044,-17.56214 -9.21584,-47.91857 12.19141,-55.26367 27.59557,6.99719 56.86033,8.15454 84.67774,1.25781 42.98123,-11.74495 83.44329,-31.26297 126.28124,-43.63476 17.79277,-11.47197 -13.42624,3.83433 -19.73828,-1.9043 -22.09307,1.46257 -39.80104,20.64506 -62.90429,17.83789 -24.14418,1.76572 -47.72163,6.90945 -72.21289,8.04883 -22.41654,-2.45099 -44.37686,-8.25375 -67.24805,-8.0625 -19.30584,3.86649 -5.08963,-24.77527 1.42187,-9.01367 9.62281,-5.60747 38.60845,-3.29086 56.41016,-1.15821 6.65075,-0.31409 39.58667,0.608 26.08789,-8.05468 0.0329,-13.91003 -2.75379,4.96766 -14.53906,1.61132 4.77555,-12.41754 -0.36829,-6.06565 -10.64063,-1.04492 -2.54312,1.3142 9.18809,-17.85757 -6.34961,-11.73828 -12.13746,21.61648 -19.92791,-9.11384 -36.17968,-1.57031 -15.04198,3.0573 -4.46188,-1.16909 3.58984,-4.81445 -2.73616,-3.75624 -38.56894,9.52316 -22.08008,-8.16602 -6.86461,-9.31537 -3.64064,-15.8243 5.35938,-19.27734 -19.96945,-9.92948 -0.56075,-23.73352 3.44336,-38.5293 -0.96195,-16.35444 30.68771,-15.95437 23.33789,-28.86914 -11.01529,-19.10426 -5.07991,-46.35532 -16.33594,-66.86524 -3.14448,-10.01378 -4.44893,-24.07952 -9.53125,-34.57421 z m 21.30078,39.58984 c 11.31297,1.66863 -3.62677,26.2875 11.25,32.42578 l -0.58984,3.61328 c -14.79912,-2.73955 -14.36352,-21.7614 -10.66016,-36.03906 z m 103.16992,9.86914 c 4.69007,1.32651 8.49227,26.00171 10.08008,37.44531 -9.48958,6.23583 -9.86162,-27.26668 -10.08008,-37.44531 z m -64.15429,22.34961 c 3.41822,0.20769 12.85107,9.26719 5.6289,16.48437 -8.07975,5.56661 -2.90013,-7.11293 -4.43164,-10.27734 -3.06129,-4.56838 -2.751,-6.30144 -1.19726,-6.20703 z m 44.87304,10.37305 c 2.78078,0.003 5.54151,2.79719 4.30665,10.10156 2.69447,9.01962 -0.30342,9.03054 -4.22071,2.41211 -8.25734,-6.55871 -4.15014,-12.51807 -0.0859,-12.51367 z m 43.63282,11.99023 c 4.03912,0.0805 8.08813,1.64102 7.79492,6.24024 -2.2851,2.59843 -6.00396,0.0927 -7.77344,-1.52344 -13.45975,-0.87305 -6.75336,-4.85096 -0.0215,-4.7168 z m -98.52149,19.50977 c 3.04564,-0.40836 7.30418,8.57267 4.10742,14.70898 3.10306,-0.0909 14.04699,2.81927 4.56055,10.37891 -6.47948,-3.83879 -26.96279,-8.09169 -11.25,-16.9961 -0.0127,-5.62757 1.14885,-7.89964 2.58203,-8.09179 z m 4.10742,14.70898 c -0.80638,0.0236 -1.11138,0.23849 -0.35742,0.64063 0.13162,-0.2087 0.24473,-0.42431 0.35742,-0.64063 z m 30.13086,21.63281 c 3.2226,0.0818 8.15874,6.53376 4.93555,14.00586 -2.70895,5.04158 -6.80446,0.47749 -5.98242,-3.51172 -2.56175,-7.62286 -1.15806,-10.55008 1.04687,-10.49414 z m 68.46289,1.95899 c -3.59968,0.35203 -8.30102,3.65215 -6.20117,9.72851 2.04249,0.53366 4.45384,-0.0428 5.78906,-1.76172 6.50908,-5.72148 4.0118,-8.31883 0.41211,-7.96679 z m 30.08399,14.66211 c -4.11293,0.0478 -8.22632,0.74012 -10.11914,2.66797 4.48348,1.24052 9.09367,0.10132 13.63281,0.10351 14.58369,0.14011 5.53478,-2.87666 -3.51367,-2.77148 z m -30.61524,0.8125 c -3.16097,0.10734 -3.48123,0.92129 4.08008,3.00976 1.45329,0.16453 2.90349,0.35783 4.36133,0.48047 19.2165,-0.54403 -1.48726,-3.7264 -8.44141,-3.49023 z m -58.48437,10.66015 c 2.57723,0.17651 8.0778,12.34756 7.48242,18.08008 1.99295,15.83681 -10.46851,-4.14303 -8.33789,-9.1543 -0.88384,-6.60763 -0.316,-9.00601 0.85547,-8.92578 z m 235.75977,19.67774 c -15.08769,-0.0969 -30.60566,10.61957 -46.25782,12.54883 -11.52553,-8.74599 -33.16007,6.98927 -42.49023,-2.59571 -1.30978,6.78961 -10.77616,1.64714 -12.44727,11.87696 13.1961,-0.71158 26.19979,-3.54388 39.42969,-3.82032 22.33264,3.15933 43.15206,-6.85281 61.76563,-18.00976 z m -230.48243,18.25195 c 1.96796,0.11058 3.38911,4.15337 0.0801,9.84766 1.65712,6.99819 -4.27956,0.33719 -3.69531,-1.89649 0.22344,-5.74444 2.0846,-8.03718 3.61523,-7.95117 z m -39.90039,8.4707 c 6.16862,-0.5707 11.30963,15.45996 -0.0898,18.25782 -6.94666,12.39488 -0.0549,-10.59548 -5.8457,-11.04883 1.71038,-4.98413 3.87934,-7.01875 5.93554,-7.20899 z m -0.19336,30.5918 c 4.55882,-0.0423 14.28016,19.45189 9.49024,29.08789 l -0.19922,1.94727 0.0312,2.9707 c -14.14646,2.91625 -2.58804,-25.6501 -10.54883,-33.33203 0.33935,-0.45505 0.75496,-0.66945 1.22656,-0.67383 z m -21.53711,28.72852 c 1.19171,-0.14143 2.3509,1.85837 2.31055,7.8164 -0.33879,1.31611 1.20278,3.88292 -1.36914,3.76953 -5.60984,-3.24194 -3.21648,-11.31594 -0.94141,-11.58593 z m 66.09961,22.73828 c 2.26979,-0.0427 4.26161,1.51653 3.42578,6.12109 -0.57187,0.53685 -1.14663,1.07265 -1.71875,1.60938 -11.38646,-1.72747 -6.04025,-7.6489 -1.70703,-7.73047 z m -38.11523,8.49414 c 3.61134,-0.30329 7.20247,7.80817 3.89062,15.50781 -3.38294,13.55679 -9.56129,-0.89977 -8.59375,-6.83594 0.91296,-6.04517 2.81147,-8.51301 4.70313,-8.67187 z"
         transform="matrix(0.26458333,0,0,0.26458333,-26.977097,10.118004)" />
      <path
         id="path1156"
         style="fill:#876d53;stroke-width:0.999999;fill-opacity:1"
         d="m 197.42578,109.19727 v 67.2539 c 0.44439,5.72039 0.8544,11.44396 0.98828,17.19141 -0.36269,0.33517 -0.67793,0.66594 -0.98828,0.99609 v 14.63281 c 4.66878,6.27649 12.26882,11.86721 7.20703,17.70313 -4.07004,-1.70267 -6.13106,-1.47107 -7.20703,0.002 v 10.77735 c 8.70505,-2.38446 10.0445,5.05399 0,7.39257 v 0.31641 c 9.18746,4.17904 3.49296,9.98654 0,17.07813 v 1.66796 c 0.0505,2.8733 0.0466,5.74786 0,8.62305 V 393.7188 c 0.14045,3.3986 0.11391,6.86442 0,10.37109 v 76.15235 h 131.08203 c 4.77156,-12.6499 -0.0527,-35.03625 3.31055,-48.62891 7.49171,-19.73337 -11.55986,-53.24415 12.2168,-63.05078 26.85934,3.81007 54.43428,6.85772 81.32617,1.63672 43.83889,-11.57805 84.90461,-31.85646 128.48437,-44.46289 19.67898,-11.87095 -11.61767,2.94971 -18.29492,-2.30274 -22.07278,1.48931 -39.77275,20.65063 -62.86523,17.8418 -24.03675,1.75453 -47.50376,6.90518 -71.88672,8.03125 -23.04049,-1.84637 -45.63087,-8.35826 -69.04102,-8.13867 -20.49389,1.22234 1.76486,-26.96102 4.59571,-5.29102 -1.25431,-19.26001 47.004,0.92805 28.98046,-16.64062 -12.47325,-11.6118 -49.11921,3.89683 -37.7246,-23.55274 -2.42639,-7.24216 -3.27616,-13.99299 7.53515,-17.96093 -14.64126,-4.87159 -11.88957,-20.22132 0.83203,-26.8086 -3.79533,-18.88158 23.57259,-30.29637 28.33203,-36.46289 -11.33233,-17.07287 -6.48456,-39.65891 -13.47265,-58.58203 -7.53496,-13.83697 -6.26194,-33.01532 -13.125,-46.67187 z m 21.30078,39.58984 c 11.31297,1.66863 -3.62677,26.2875 11.25,32.42578 l -0.58984,3.61328 c -14.79912,-2.73955 -14.36352,-21.7614 -10.66016,-36.03906 z m 70.72656,8.07031 c 1.82125,0.162 3.3789,3.69584 0.84766,10.03711 0.54129,4.67234 -3.17674,5.93302 -3.27539,0.16211 -1.47794,-7.1516 0.60649,-10.36122 2.42773,-10.19922 z m 32.32618,3.07227 c 6.38156,2.28135 9.03434,27.44111 10.35351,39.46484 -15.10178,-4.50366 -6.63177,-27.71473 -10.35351,-39.46484 z m -64.72071,20.62304 c 4.26357,0.0478 12.8691,5.46747 6.8086,12.88868 -5.66347,15.29958 -3.22227,-2.47731 -5.6875,-6.44532 -4.67365,-4.56591 -3.67924,-6.47204 -1.1211,-6.44336 z m 44.81641,5.27149 c 4.42561,-0.63701 5.25079,15.20577 5.68555,20.57031 0.81774,12.97029 -11.22414,-12.93893 -10.32032,-15.56836 1.87436,-3.35436 3.3956,-4.82359 4.63477,-5.00195 z m 42.76953,16.88281 c 4.66241,0.0439 9.51313,1.70243 9.79297,6.58985 -2.82931,2.64582 -6.57878,0.15602 -9.49609,-0.82618 -15.31388,-1.42431 -8.06755,-5.83689 -0.29688,-5.76367 z m -96.57226,20.28906 c 2.96057,0.25164 6.89393,8.23068 3.90234,14.33203 3.26445,-0.0876 13.94018,3.69006 4.31836,10.88477 -4.30575,1.13339 -2.25379,-2.98103 -6.38086,-4.18555 -12.41802,-0.54918 -13.53132,-8.23018 -4.52734,-12.82617 -0.27605,-6.14118 1.05848,-8.34353 2.6875,-8.20508 z m 3.90234,14.33203 c -0.87976,0.0236 -1.25296,0.31109 -0.50781,0.90821 0.18721,-0.29704 0.35687,-0.60037 0.50781,-0.90821 z m 47.23633,3.75196 c 0.48967,0.14218 1.02902,1.77302 1.50781,5.98242 -4.38727,12.0075 -3.25664,-6.49021 -1.50781,-5.98242 z m -18.04297,16.35742 c 2.97084,-0.28773 9.88467,9.80384 5.73242,15.78906 -6.51514,7.69685 -5.72282,-3.78071 -5.93164,-7.60156 -1.68768,-5.78013 -1.15116,-8.05671 0.19922,-8.1875 z m 10.29492,29.11914 c 2.55769,-0.47432 8.37321,14.44221 7.81445,20.33789 1.82916,13.51764 -7.16737,-1.1983 -7.84961,-4.49414 -0.71127,1.75947 -6.77753,-0.92158 -0.89453,-6.75391 -0.57386,-6.36207 -0.0711,-8.90424 0.92969,-9.08984 z m 95.8418,27.29688 c -1.63302,-0.10497 -3.8179,1.1013 -6.32813,4.79101 11.15857,7.64918 11.22718,-4.47611 6.32813,-4.79101 z m -90.59961,11.15234 c 1.46554,0.0213 1.71303,7.35169 1.27148,13.18555 -3.43755,1.7409 -4.86864,-3.61002 -4.65234,-5.93555 1.51171,-5.26534 2.61319,-7.26117 3.38086,-7.25 z m -39.10742,8.31055 c 5.44036,0.4624 10.443,15.83091 -0.89844,18.65625 -2.86093,12.35149 -3.83035,-8.90424 -4.73633,-10.70704 1.31013,-6.02887 3.50593,-8.13015 5.63477,-7.94921 z m -1.08008,32.30664 c 3.19357,0.0893 16.61371,13.68909 9.60742,21.97265 -0.0733,3.42327 -0.10152,6.84838 -0.25391,10.26953 -8.69878,7.46159 -9.18101,-17.02681 -6.56836,-25.01367 -3.71893,-5.23057 -4.03481,-7.26344 -2.78515,-7.22851 z m -21.45899,27.41211 c 1.19171,-0.14143 2.3509,1.85837 2.31055,7.8164 -0.33879,1.31611 1.20278,3.88292 -1.36914,3.76953 -5.60984,-3.24194 -3.21648,-11.31594 -0.94141,-11.58593 z m 67.12891,21.28125 c 2.36175,0.0966 4.03523,2.04053 2.39648,7.57812 -16.11526,0.93616 -7.59234,-7.79076 -2.39648,-7.57812 z m -38.61719,9.17968 c 3.67848,0.34929 6.58324,11.92478 2.54102,18.39844 -5.82385,12.70122 -8.38036,-6.1553 -7.45703,-10.38281 1.4125,-6.01345 3.24398,-8.17439 4.91601,-8.01563 z"
         transform="matrix(0.26458333,0,0,0.26458333,-26.977097,10.118004)" />
      <path
         id="path1154"
         style="fill:#745846;stroke-width:0.999999;fill-opacity:1"
         d="m 197.42578,109.19727 v 5.50585 c 0.39926,-0.01 0.79869,-0.94741 1.10742,-3.4414 5.2594,2.14825 6.76367,0.57686 6.42188,-2.06445 z m 19.03711,0 c 0.80534,8.07692 -12.44789,16.24793 -7.17969,27.83007 -8.41064,3.24229 -18.21692,8.67673 -1.67968,7.41016 17.74847,8.12885 -14.92155,25.84748 -3.86133,7.09766 -2.42428,-4.42272 -4.97577,-0.0209 -6.31641,6.10546 v 14.87891 c 0.13702,0.3366 0.28325,0.65574 0.45313,0.93164 -2.36706,-16.16719 21.57923,2.24603 6.22851,2.38867 6.09821,13.28994 3.5276,35.1848 5.91602,52.09961 -11.69589,1.96629 0.85276,4.95351 3.52148,10.54493 -5.73068,1.85672 -8.42827,9.55005 -8.5293,18.48828 -7.5468,7.50197 -6.354,9.53371 -5,20.71875 -0.68437,3.64695 -1.66016,7.79037 -2.58984,12.10742 v 23.39453 c 0.35641,-1.57768 0.96787,-2.88519 1.86914,-3.62695 16.62106,-14.37828 -5.88609,14.08558 4.73828,6.02929 10.73984,-13.14276 8.86044,6.47757 2.87696,10.37696 -5.0513,4.92715 -8.40472,0.40381 -9.48438,-5.22071 v 2.96875 c 1.3898,2.95354 3.38906,5.61796 6.19727,7.85157 -14.57324,2.00516 2.44543,13.03366 -6.19727,14.33398 v 1.20313 c 2.76474,4.1262 0.75155,7.567 0,14.64453 v 17.01171 c 1.07702,9.87965 2.9207,19.75734 0,29.51758 v 71.95899 h 18.66406 c 1.65475,-4.52148 7.23151,-2.30314 13.65821,0 h 47.58203 c 0.84055,-0.0843 1.61016,-0.0877 2.30664,0 h 48.99609 c 1.35185,-31.58881 4.06586,-63.40636 3.50586,-94.93164 -4.18333,-25.77963 28.963,-15.17847 43.41797,-12.86328 58.55971,5.47033 110.28007,-27.45282 164.76563,-42.5293 16.62546,-5.34221 -1.41467,-6.06628 -9.78711,-3.41992 -22.97503,6.51112 -44.00021,17.04184 -68.1211,19.01562 -24.20178,2.63445 -48.55862,5.22061 -73.02344,3.85352 -20.37524,-6.78195 -41.96843,-3.10215 -62.55078,-7.53516 -15.50082,-20.27924 22.18299,-13.75998 33.76954,-14.2793 23.57642,-0.34082 -1.66304,-12.70913 -10.94727,-13.93945 -12.8773,6.49545 -36.25636,-6.36249 -20.05078,-20.20117 -13.18571,-5.1218 5.50727,-13.08046 1.75976,-19.73828 -24.06934,0.82828 3.16502,-21.06465 6.11329,-32.79492 0.058,-12.10488 27.95291,-23.83184 18.99609,-30.30079 -9.79068,6.76388 -14.41001,4.31562 -20.67578,-2.375 -14.58268,-10.49604 -16.19199,-38.41095 -12.61719,-50.57031 9.65514,14.97586 0.42541,42.09313 23.43945,46.23633 18.92989,3.17338 10.23275,-32.21101 -0.11328,-40.47656 -4.88363,-16.21641 -1.48071,-36.77599 -8.42969,-54.19531 h -34.875 c -0.97907,1.72601 -1.81186,3.51528 -2.45507,5.3125 0.2129,-1.78731 0.003,-3.58351 -0.54883,-5.3125 h -43.42969 c 1.71904,2.64726 2.55119,5.88572 -1.39453,7.01367 -10.45374,3.48976 -6.26772,-5.73949 0.0469,-6.375 -0.19396,-0.24737 -0.30642,-0.41454 -0.47656,-0.63867 z m -15.95703,8.83593 c -0.79641,0.0806 -2.05696,1.96271 -3.08008,4.63282 V 137.875 c 7.5e-4,0.001 0.001,0.003 0.002,0.004 3.01508,1.65154 5.43763,-1.64062 6.4375,-4.00391 4.39525,-9.12487 2.5125,-6.64238 -3.73437,-6.91602 1.60295,-6.5918 1.3236,-9.02174 0.375,-8.92578 z m 72.3125,7.3418 c 1.17832,-0.0708 2.29304,1.08977 2.96289,4.34961 -0.2588,1.34364 -0.11292,2.78993 -0.69531,4.05664 -11.49868,7.81098 -6.47586,-8.15345 -2.26758,-8.40625 z m 16.14648,5.29492 c 1.75984,-0.2169 4.41792,8.51547 2.01563,15.4707 -4.71477,5.21327 -3.5076,-4.06083 -3.18555,-6.22265 -0.42814,-6.56483 0.24811,-9.13443 1.16992,-9.24805 z m 7.63086,1.18555 c 3.20606,-0.45376 10.77605,22.35869 5.26368,29.16406 -18.09065,0.10731 6.15069,4.57984 -1.53907,10.625 -2.30399,5.08482 -8.96251,6.35412 -11.77148,0.72656 -12.59279,-16.22917 14.2642,-15.09928 6.9414,-30.85156 -0.54685,-6.776 0.0368,-9.51281 1.10547,-9.66406 z m -45.10156,3.67187 c 2.06867,0.0509 3.113,2.32922 0.92578,8.89454 -18.18699,5.3939 -6.21237,-9.02471 -0.92578,-8.89454 z m -31.61133,11.66211 c 1.07517,-0.0146 2.46279,1.10799 4.26563,3.82422 -3.80822,13.42663 3.17284,22.8058 6.75195,34.77149 l -1.14453,1.27148 c -4.23882,-4.09862 -14.59403,-2.69174 -14.8457,-12.63281 1.50229,-5.74275 0.31359,-27.17099 4.97265,-27.23438 z m 54.57813,1.12891 c 1.7914,0.0108 3.52528,2.37265 2.75586,9.10352 l -0.84375,1.0664 c -8.03917,-3.67888 -4.89779,-10.18787 -1.91211,-10.16992 z m -20.0918,26.16211 c 7.26679,-0.239 16.84317,20.10607 8.60742,28.88672 -8.31134,10.3099 -4.55603,-12.16184 -10.66601,-9.10352 11.69635,-8.00918 -7.74272,-6.61016 -0.85743,-18.32617 0.88515,-0.96804 1.87791,-1.42289 2.91602,-1.45703 z m 42.7168,7.38281 c 5.69975,-0.25746 17.62112,16.99784 11.16601,25.19336 -1.33146,20.30561 -14.43444,-16.10863 -13.94922,-20.27539 0.0805,-3.4014 1.18728,-4.84588 2.78321,-4.91797 z m -23.18164,10.95899 c 1.69036,-0.0573 2.38559,2.191 -0.29297,9.07226 -11.96274,2.33904 -3.42583,-8.94613 0.29297,-9.07226 z m -73.97461,12.44921 c -0.911,-0.0335 -1.79671,0.0714 -2.50391,0.3125 v 4.01563 c 0.65554,0.59906 1.52834,1.25498 2.70899,1.98047 l 0.93554,0.27734 1.06641,0.31641 c 5.51233,-4.43195 1.45204,-6.76781 -2.20703,-6.90235 z m 45.55469,15.29102 c 5.92318,-0.0274 9.45935,17.73086 11.77343,1.93555 0.79347,10.28908 11.30462,25.77692 9.19141,38.99023 13.28032,6.89601 -10.27788,1.46883 -1.47266,8.09961 -2.643,0.72836 -5.96093,1.41682 -8.33203,-0.45508 -2.30251,-15.87431 -8.74053,-25.35819 -24.01172,-31.40039 -6.96191,18.55226 -22.51586,-5.7108 -13.97265,-13.92383 5.73097,8.3359 14.42647,14.81299 21.26172,2.08594 2.0586,-3.9235 3.904,-5.32437 5.5625,-5.33203 z m 39.11132,16.34961 c 3.01166,0.20075 9.30989,8.19071 6.29492,13.8457 -4.01327,11.75284 -4.72736,-4.38865 -6.51171,-6.29492 -2.03647,-5.62433 -1.36074,-7.65593 0.21679,-7.55078 z m 11.08008,2.93164 c 3.52697,0.0334 9.38584,7.10551 6.56445,13.66211 4.40149,-5.63212 2.57088,10.29396 3.16797,14.04492 -0.10182,4.93376 0.95678,9.88458 -0.29101,14.75391 -4.2681,-2.48471 -2.31015,-25.31555 -10.88477,-33.35547 -1.93447,-6.62804 -0.66551,-9.12547 1.44336,-9.10547 z m 6.56445,13.66211 c -0.49978,0.63953 -1.05867,1.48549 -1.73242,2.73242 0.7789,-0.8857 1.3332,-1.80466 1.73242,-2.73242 z m -92.14062,2.14258 c 4.2254,-0.29497 13.4095,7.699 6.04883,14.34179 -4.07502,5.23823 -5.87958,-2.55719 -5.51758,-5.66992 -3.59779,-6.08814 -2.74456,-8.51737 -0.53125,-8.67187 z m 70.80469,0.49023 c 5.29921,-0.30735 16.98203,15.25313 6.31445,19.75586 -6.87601,5.12053 -7.89636,-6.45246 -7.88086,-10.49219 -1.6033,-6.5931 -0.5072,-9.1434 1.56641,-9.26367 z m -35.14258,7.07031 c 0.98959,0.0887 2.36592,1.37705 4.1875,4.6211 -5.4997,17.11442 -8.47574,-5.00524 -4.1875,-4.6211 z m 5.1289,12.86329 c 0.46169,-0.0931 1.621,0.93929 3.87696,3.56054 8.45465,6.2353 12.14998,20.72979 11.27539,33.97657 -12.97747,6.12883 -2.501,-12.50075 -14.00586,-10.83594 7.9782,-4.77706 -3.14714,-26.29796 -1.14649,-26.70117 z m 40.74805,9.64843 c 9.17758,0.35045 7.09021,25.08094 8.78125,33.31836 9.46569,13.62205 12.138,30.28261 11.75196,48.45703 -11.11812,11.47631 -1.89835,-14.81534 -8.84376,-17.59961 -1.94205,-1.93152 10.37755,-11.55603 -2.6875,-15.20117 -0.96698,6.96937 -13.54971,5.40393 -10.32031,-3.69336 14.22515,-16.4064 -10.70806,-26.5499 -1.9082,-44.5625 1.20717,-0.53083 2.27716,-0.755 3.22656,-0.71875 z m -32.89258,33.54688 c 0.91248,0.0905 2.23773,1.02219 4.16993,3.20312 9.22523,10.86103 -8.54894,41.45238 8.37695,40.93946 -6.59666,6.60799 -0.55186,22.74459 -4.31641,33.5625 v 0.002 l 0.56446,3.90625 c -13.47963,9.18981 -16.06168,-17.24553 -12.56446,-26.94531 -0.80414,-16.27714 -7.58428,-32.8499 -5.29687,-46.44727 11.2612,15.35679 4.13901,-8.70931 9.0664,-8.2207 z m -39.16015,4.5332 c 1.48021,0.18328 0.94826,2.40325 -4.375,8.45899 -16.33033,3.9042 0.59223,-8.92736 4.375,-8.45899 z m 20.5,10.30078 c 4.06496,0.19303 8.33033,4.36595 2.89062,11.61524 -1.91977,2.26768 -5.38608,-0.98001 -6.37695,-2.21289 -3.53133,-6.64509 -0.10041,-9.57267 3.48633,-9.40235 z m 31.55664,1.10742 c 3.64094,0.29366 8.18674,7.17769 1.14648,12.60938 -1.91764,8.82157 -5.55513,-1.06836 -4.02344,-4.28516 -1.16654,-6.30453 0.69239,-8.50041 2.87696,-8.32422 z m -57.75196,16.50196 c 1.3556,-0.11308 2.11403,1.62419 0.58594,6.93359 l 0.20117,1.38867 -0.43359,0.99414 c -9.21072,0.14112 -3.33582,-9.06762 -0.35352,-9.3164 z m 73.98829,1 c 5.33681,0.26526 13.315,6.14038 10.80078,14.67383 0.0636,11.69272 -3.66238,-1.50906 -4.0586,-4.67774 -3.89077,-16.41921 -0.92525,14.03507 -8.22265,0.95703 -5.22309,-7.97267 -2.67039,-11.15944 1.48047,-10.95312 z m -38.31446,25.76367 c 1.58828,0.0441 2.12931,2.71933 -1.16015,10.59961 -8.71864,-1.17899 -1.87201,-10.6837 1.16015,-10.59961 z m 23.27344,8.13867 c 1.26713,-0.1249 6.18088,4.2154 9.73633,6.42578 1.40981,13.28417 -3.7139,1.32065 -6.99805,0.0469 -2.94704,-4.71637 -3.49856,-6.39772 -2.73828,-6.47266 z m -40.51367,2.93945 c 3.53492,-0.18789 10.37708,9.8604 7.6875,17.55079 -4.59332,2.94119 -7.59033,-3.65 -8.67578,-7.02149 -1.80827,-7.52493 -0.86335,-10.43087 0.98828,-10.5293 z m -10.91602,3.22657 c 4.40236,-0.54818 5.52389,13.39285 0.41407,18.71289 -0.70398,0.59548 -1.40924,1.18955 -2.11329,1.78515 -0.59809,-0.99944 -9.8513,-11.48914 -3.6875,-14.26562 2.08746,-4.25857 3.91927,-6.0497 5.38672,-6.23242 z m 80.98438,6.63476 c 2.14201,-0.40045 1.37174,8.98048 -1.10352,13.53711 4.36769,-2.26624 13.09035,11.51908 1.12305,14.71875 2.15811,-1.64508 -4.14088,2.8563 -3.81055,0.76172 -2.65464,-5.02896 -8.21045,-14.41572 -0.13281,-23.17969 1.80217,-4.02747 3.08565,-5.68119 3.92383,-5.83789 z m -89.83594,17.29688 c 0.5502,-0.007 1.13338,0.0103 1.75391,0.0527 -5.88436,9.5582 22.54504,9.62757 9.54101,22.5 -7.20108,-11.28733 -5.79262,2.92179 -2.24218,8.26563 9.06324,3.08916 2.14802,3.99108 1.27148,12.36523 2.90659,7.92102 -15.73607,1.31492 -16.81641,-1.60937 8.25124,2.62752 -5.74934,-12.30951 6.49414,-9.21094 3.94132,14.17474 7.84006,4.16273 3.0918,-4.62891 -4.13583,-4.31666 -20.14986,-27.52156 -3.09375,-27.73437 z m 49.90039,0.60351 c 5.17349,0.43286 11.31347,20.23717 5.01563,27.33594 -10.26442,12.75318 -10.7747,-11.13886 -9.8418,-17.02344 0.92547,-7.685 2.80176,-10.48188 4.82617,-10.3125 z m 18.03711,2.62696 c 4.00963,0.22127 11.10095,4.91742 9.55664,12.29297 0.40107,7.48497 -6.41828,-2.60877 -7.80469,-3.8418 -6.12382,-6.08823 -4.87055,-8.62327 -1.75195,-8.45117 z m -40.23633,12.90429 c 7.42415,0.69244 7.35509,19.58413 5.54883,28.74219 -1.32188,9.31453 -3.48196,-7.07397 -3.9043,-9.02734 4.29973,-11.61551 -11.97655,-8.78049 -8.05273,-16.94336 2.58217,-2.12197 4.69494,-2.93128 6.4082,-2.77149 z m 31.83789,14.48047 c 0.83111,0.183 2.33936,1.39059 4.7168,4.06641 3.15037,-10.25076 11.13005,1.53695 11.16406,13.02539 -5.08657,10.82782 -20.36881,-18.08001 -15.88086,-17.0918 z m 34.03125,4.07617 c 2.14738,0.0676 3.61012,3.05915 -0.15039,8.73243 0.5665,2.76956 -3.62806,2.48935 -3.80664,0.084 -1.02249,-6.02587 1.80966,-8.88396 3.95703,-8.81641 z m -55.3457,12.6543 c 1.72609,-0.21133 2.42548,1.94456 0.0918,8.81641 -15.62411,7.72547 -4.50292,-8.27635 -0.0918,-8.81641 z"
         transform="matrix(0.26458333,0,0,0.26458333,-26.977097,10.118004)" />
      <path
         id="path1152"
         style="fill:#5d4f44;stroke-width:0.999999;fill-opacity:1"
         d="m 197.96875,109.19727 c 1.30395,2.29729 1.9783,1.71063 2.23242,0 z m 17.95508,0 c -3.40155,16.59863 -3.53743,33.65721 -3.93555,50.82812 -1.71791,23.34488 7.76422,-4.45658 5.14649,-13.36719 5.90149,-19.52008 5.88825,22.56605 12.125,12.47461 14.04329,-7.49546 8.36261,15.5868 -2.53711,7.0625 -9.35318,8.61407 14.36973,3.36832 8.01367,16.06836 -7.59173,4.2448 5.90286,16.094 -5.10352,19.52149 2.42709,-9.40228 -0.9622,-3.48892 -5.10937,-0.27149 2.50689,-6.05608 -9.88953,-25.35131 -6.29688,-9.40625 -11.96229,5.51959 -8.88367,20.52926 -7.32031,33.62305 2.39899,20.96103 9.41424,40.46581 4.9082,61.49023 -17.56646,24.98103 4.80616,-35.87978 -16.36718,-24.7832 5.78048,10.928 0.93237,20.88918 -2.02149,31.2168 V 310.25 c 2.99247,-8.54027 15.51949,-14.97342 17.89453,-1.08008 9.20556,17.01004 -0.96868,39.92743 2.58399,59.93164 -0.33294,17.26791 19.00576,33.52831 5.84375,50.3418 -14.88229,1.87816 -2.05398,3.46887 3.2832,9.50976 -3.31754,11.05505 8.42101,17.31783 4.02734,3.13477 20.03038,-0.33789 -1.56637,-27.25373 -1.25195,-39.00391 -1.25819,-9.21082 -6.92039,-48.63502 10.29297,-32.58007 20.87804,-2.80487 -14.60415,11.29775 -0.57813,12.96679 25.70353,-1.23205 -5.63544,26.30043 5.38672,30.14258 -1.18141,6.31948 -0.41567,10.65884 -0.54297,17.46289 5.2167,10.96082 -1.08461,45.75207 19.44141,31.49414 -10.56406,-9.18671 -4.93455,-28.03017 -13.0625,-41.38672 -0.5706,-18.52607 5.19722,11.65177 6.63672,3.5293 19.68423,-8.78415 5.6785,35.10132 21.53906,30.5957 -0.87786,-7.21666 -0.25317,-9.65425 6.92969,-3.43164 -1.3413,8.35087 10.33705,31.11894 -3.86328,28.32617 -0.74557,5.21726 0.83968,8.25144 3.78711,10.03907 h 11.47461 l -0.76367,-0.15039 c -6.30197,-11.50458 9.53808,-2.651 9.16992,-12.47071 6.77743,-11.86322 -3.95011,-0.73429 -3.28321,-11.04492 -0.52862,-16.07939 -6.80745,10.23616 -8.46289,-5.78711 17.44582,-19.04451 27.09525,24.65973 8.43164,28.34961 l -2.73046,1.10352 h 27.54101 c 2.21397,-16.88985 3.00847,-34.67501 4.02734,-51.92578 3.47906,-19.33516 -10.61111,-54.99392 16.45118,-60.08203 26.01002,4.07005 52.86953,6.17088 78.82812,0.60156 34.40205,-9.88483 67.32883,-24.48505 101.30274,-35.80469 18.33218,-3.51316 -1.9329,-8.6335 -9.75391,-2.78516 -20.38186,12.26914 -44.24208,13.91257 -67.03516,18.25196 -21.83153,-0.79503 -44.50824,6.54514 -66.16992,0.19531 -19.79,-3.94038 -42.60856,-2.88552 -59.58203,-5.02734 -13.84251,-26.59822 23.31126,-14.58588 37.26953,-17.26954 17.43597,-10.78511 -40.16573,4.37739 -15.33789,-9.84179 -3.97739,0.29318 -19.50167,-4.7829 -25.18359,-1.26172 -15.41464,3.17524 4.97984,-11.47185 5.32226,-18.83985 -3.45257,-5.40053 -1.77165,-13.69162 1.47461,-21.88671 -7.34325,3.25381 -13.41728,-5.01305 -5.20117,-13.95899 12.38025,-14.25548 15.53,-35.65016 34.2832,-44.02539 -6.4457,-6.71862 -15.98384,5.11188 -21.29297,-6.78125 -19.05526,-4.91007 -13.36694,-35.04402 -15.34179,-51.67383 9.20883,-2.01676 5.3754,29.8668 14.07226,39.33594 20.18888,20.59244 27.72255,-13.37811 17.19141,-26.98828 -16.29418,-10.42011 -7.58833,-22.662 -10.57227,-37.7168 -1.87286,-6.73858 -1.71054,-16.057 -3.50781,-23.56054 h -28.18164 c -0.2261,1.91833 -0.65925,3.85309 -1.73437,5.63671 -9.13347,5.26967 -10.02707,0.24639 -10.72852,-5.63671 h -6.0957 c -4.30753,1.53631 -6.08066,1.16371 -6.38477,0 h -9.5957 c -0.83161,5.90046 -0.12206,12.93721 0.75,18.33398 5.38021,13.35226 -7.54065,5.51642 -8.46094,13.4707 -6.97734,21.12124 1.70241,-20.17914 -2.37109,-17.92383 -1.89904,-15.16193 -7.60723,-10.73189 -13.5625,-1.8789 -1.92398,20.77207 -21.05317,-2.61242 -4.66016,-5.92969 2.14423,-2.21826 3.56364,-4.24079 4.42578,-6.07226 h -24.51367 c 0.18459,1.51738 0.62348,3.16427 1.44531,4.98046 -4.42189,6.88792 -4.79057,1.18843 -5.53906,-4.98046 z m 69.41601,4.18164 c 0.95511,-0.0547 2.57026,1.04292 5.13086,3.75 -2.30796,14.15781 11.2007,-2.50348 11.79297,6.53906 4.51188,16.71022 12.55788,-11.40262 10.93945,6.5957 -11.87711,5.8891 -12.10255,15.90683 -8,26.74024 -9.56626,16.69825 0.88534,29.3492 8.76954,43.40039 -8.14822,-7.76756 -2.40589,5.87027 -7.9961,16.34765 0.51472,3.92615 -7.54668,-8.35982 -10.5,-8.10742 2.67718,-9.49864 -5.22277,-20.67465 -3.38086,-26.47461 1.48581,-9.57681 -19.97247,-25.29273 1.98633,-29.03515 10.03106,-9.67595 -9.70576,-0.89852 -7.30664,-11.70899 2.6724,-5.96703 -5.57433,-27.80974 -1.43555,-28.04687 z m -27.92578,10.73437 c 2.1777,-0.61542 -3.12497,18.46269 -1.6289,23.15039 -29.40403,1.45771 -2.63141,-12.45865 -1.25,-19.16015 1.4748,-2.65845 2.37636,-3.84822 2.8789,-3.99024 z m 62.22071,1.8418 c 0.40959,-0.23285 1.08269,1.6649 2.09765,7.37695 -1.66483,21.46709 -3.5605,-6.54537 -2.09765,-7.37695 z m 16.58398,3.79687 c 1.25692,0.18616 2.57152,2.72544 2.75781,9.45313 l -0.39648,1.61719 -0.69336,0.80468 c -6.25941,-4.0128 -4.06754,-12.23038 -1.66797,-11.875 z m -61.86523,17.65039 c 0.7253,0.18167 1.86582,1.97628 3.74218,6.28125 -2.07854,7.48019 5.56219,43.18311 -6.78906,23.9043 -10.1747,-16.23761 -8.62185,4.54086 -5.75976,12.51563 13.18567,-6.05773 12.63976,6.26268 12.25976,20.07031 -2.5009,6.13416 -6.85381,1.45555 -7.00586,-2.56055 -2.65438,-12.45801 -4.07653,-11.83764 -7.92969,-1.32422 -4.90558,-0.38822 -25.46624,-7.62499 -14.77539,-12.19336 11.41476,-8.19687 2.81027,-4.52874 -5.89258,-7.66211 16.62643,-7.25593 -1.40829,-24.71607 6.85743,-33.40039 3.05751,1.13267 11.39966,6.14654 13.08203,10.08594 13.71486,13.01647 9.06794,-16.50403 12.21094,-15.7168 z m 34.66992,15.87696 c 1.94951,0.0623 4.42067,4.19207 2.71484,10.36132 1.93729,18.77588 -5.26276,6.77818 -4.10742,-2.16992 -1.32431,-5.82749 -0.12371,-8.23984 1.39258,-8.1914 z m -99.97656,13.24804 c -3.21442,0.18638 -2.78013,10.7264 0.92968,15.06055 4.85795,5.34064 3.83259,-9.22874 3.51367,-11.18359 -1.8963,-2.85223 -3.37188,-3.93908 -4.44335,-3.87696 z m 6.96093,24.15039 c 1.73739,-0.3597 4.93527,3.43227 5.96875,9.58204 -0.55702,5.65864 -4.84354,3.5356 -5.66797,-0.36329 -2.12048,-6.14645 -1.65208,-8.93898 -0.30078,-9.21875 z m 27.32422,3.00391 c 1.54009,0.0981 2.44207,2.2559 1.49805,8.19727 -16.48409,9.75267 -6.11831,-8.49158 -1.49805,-8.19727 z m 13.25195,9.10352 c 5.60981,-0.17397 9.61129,4.00806 -1.5332,6.08984 5.15587,12.75945 12.79589,-9.5081 21.49024,-1.55664 9.42371,9.42704 -0.57034,2.62444 -6.22657,6.51758 -12.56409,15.58073 7.15435,21.1466 3.10157,36.57226 10.8233,8.80125 1.02226,-44.47271 11.58203,-25.33789 7.25325,14.21855 10.56954,-0.66736 8.27929,-4.78515 18.7703,13.01838 12.70442,43.74507 11.12891,61.28125 -4.95336,-10.66947 0.82033,-39.59876 -14.52734,-38.11329 -1.67644,16.74246 11.44506,38.47564 11.38281,58.4629 4.93203,16.4916 14.2842,31.80612 10.97656,51.91796 4.46467,21.2902 -10.88491,3.63895 -8.19922,-7.58984 -9.25803,-7.65902 9.17506,-23.31305 -4.57226,-18.28711 -7.70092,12.95604 -18.80514,-0.0538 -9.04883,-10.6875 -17.5841,-5.34087 9.0023,-19.68405 -9.36133,-18.65625 1.07653,0.72748 6.97012,-24.45019 -6.42578,-20.83008 2.76061,5.12397 2.50006,13.94572 1.35742,21.55274 -1.70035,11.09619 11.04744,38.9088 -7.08008,42.34375 -1.58882,-25.394 -8.96189,21.99711 4.07618,5.0957 12.45717,7.44197 7.5097,-9.37474 18.04492,-6.2168 7.68095,7.32768 15.81914,29.7041 11.11718,35.15039 -4.38857,-12.60903 -8.28559,-19.24713 -20.40429,-22.48437 -3.84408,3.31708 -5.55449,6.92178 -5.89063,10.68555 -0.0176,-0.69915 -0.11852,-1.33004 -0.33984,-1.81641 -15.18758,-7.37303 1.91371,6.32984 -6.82031,10.25 3.56895,2.44519 6.60302,-2.96348 7.09375,-7.12305 -0.0788,10.81853 10.31232,22.80517 13.80273,32.98633 -10.72848,6.81199 -0.65204,15.00779 1.58399,25.40625 0.61234,4.80095 -15.89941,-0.74699 -14.8086,-5.71484 3.06748,-15.63602 0.018,-28.51332 -7.28711,-38.19141 4.8704,13.46793 -10.15722,21.31018 -17.08203,7.54688 0.51476,-16.5176 2.30951,-36.4696 -3.23047,-53.57227 -3.483,10.45274 -15.3034,3.36633 -14.60937,-5.01562 -0.13937,-18.7326 21.01907,10.35916 12.36132,-9.91797 0.82961,-14.90635 11.66201,9.88697 9.07813,0.97461 -9.04087,-15.41294 14.7601,-12.59364 8.65625,1.81054 13.19535,13.71759 -5.40241,-26.36948 8.5625,-10.23242 -2.47222,-14.61974 -3.05265,-30.28984 -4.17969,-44.97266 -5.37606,8.10194 -4.82315,23.67199 0.0703,33.30079 -6.77192,18.62655 -16.07764,-12.3288 -22.07617,-3.3711 4.89621,20.15114 -11.39169,-1.22333 -3.10351,-10.4707 16.50316,6.52505 7.40472,-18.77799 -1.71094,-24.63477 2.83104,-19.02984 11.00336,6.55647 17.93359,3.73828 2.15772,-3.65982 -10.05286,-13.45267 -14.74804,-18.23632 6.85245,-4.38916 6.16451,-12.41938 -6.51367,-4.24219 6.48195,-11.49236 -6.09098,-9.40709 -3.27735,1.89453 3.15963,14.92074 -1.69305,8.76322 -3.81445,-1.79297 -13.63918,-14.15798 3.16404,4.90791 -4.86914,12.32422 1.44016,-11.9437 -19.99498,-36.52552 -4.92383,-40.95508 9.7521,15.85018 14.22009,-3.56901 26.07422,-4.6875 1.59872,-4.63432 5.54427,-6.30578 8.91015,-6.41015 z m 35.55079,3.44336 c 3.08627,-0.0534 8.3476,2.46835 7.84179,8.36718 -2.64732,2.6237 -9.44301,0.22382 -7.35742,-3.94726 -3.96925,-2.77961 -2.88481,-4.37836 -0.48437,-4.41992 z m 24.84961,10.89843 c 2.01351,-0.65493 1.15084,23.42397 1.57617,30.51758 -10.85367,6.68649 -1.03129,-23.12446 -2.29883,-29.47461 0.27448,-0.64335 0.51436,-0.97522 0.72266,-1.04297 z m -38.82813,36.75977 c -11.34295,5.05475 -3.32776,20.04317 6.85352,22.81836 14.19783,-8.89835 -12.35915,-8.51558 -6.85352,-22.81836 z m -42.26367,4.67969 c 1.16142,-0.0569 2.55542,1.85055 3.88476,7.42578 -8.75683,10.58131 -7.36903,-7.25519 -3.88476,-7.42578 z m 76.83008,0.54882 c 1.98504,-0.2568 5.2727,4.60405 3.45312,11.5 -0.71635,4.69674 -3.68088,-1.77623 -3.64648,-2.79882 -1.91373,-5.95412 -1.16483,-8.52547 0.19336,-8.70118 z m -81.12891,52.9961 c 2.60537,0.2884 1.29726,8.6381 -3.44336,12.59375 -1.56618,12.08778 -6.01396,-7.29913 -1.44141,-8.48438 2.24693,-3.10216 3.86528,-4.22222 4.88477,-4.10937 z m -24.63281,12.05273 c -6.4241,-0.0989 -15.03509,2.87887 -3.49805,7.23047 -0.0916,2.72674 4.25045,2.03602 4.00977,-0.61328 8.15806,-4.60285 4.4848,-6.54026 -0.51172,-6.61719 z m -1.75,20.72071 c -3.52389,0.0267 -9.37138,11.33271 0.12695,10.25976 6.24263,3.85312 7.8509,0.70044 1.88281,-3.69141 0.39096,-4.86176 -0.63085,-6.57882 -2.00976,-6.56835 z m -2.15235,15.06445 c -0.82412,0.0166 -1.72205,0.22072 -2.69336,0.6543 -7.77746,8.51387 1.96972,29.3097 9.58985,37.51562 10.25442,3.04135 1.92782,-1.92107 -1.50977,-5.35156 17.9991,-6.1344 3.86448,-13.10267 -4.46875,-21.94336 8.03375,6.17601 7.04858,-11.03578 -0.91797,-10.875 z m 39.46094,10.65234 c -4.23303,0.23339 -10.22982,5.26843 -1.89062,9.44141 0.60332,5.59899 5.33017,2.20342 2.94726,-1.36328 3.91089,-6.14894 1.83965,-8.23782 -1.05664,-8.07813 z m 55.125,13.75782 c 3.16777,-0.21515 7.73465,2.81772 10.6875,8.11328 -7.45927,3.30886 8.18919,18.99185 -2.86914,23.28906 -9.1324,11.94984 -20.66413,-12.34527 -10.11523,-20.0332 -2.64076,-7.69083 -0.8709,-11.154 2.29687,-11.36914 z m -97.95703,9.40624 c -0.68647,-0.003 -1.5204,1.23908 -2.26172,3.0879 v 16.33789 c 5.00408,1.52705 4.33334,-8.63265 3.62305,-11.35547 0.21575,-5.85304 -0.43705,-8.06687 -1.36133,-8.07032 z m 106.9375,26.3379 c 5.1237,-0.14136 7.4571,4.19759 -3.68164,8.95703 -2.69596,2.62964 -9.7147,2.08511 -6.24609,-2.98633 2.77541,-4.18881 6.85351,-5.88589 9.92773,-5.9707 z m -67.54883,14.88281 c -1.66769,0.31399 -3.32946,9.32168 -1.14453,15.59375 -4.03862,20.75013 -4.05782,-6.30029 -6.73828,-10.74414 -1.08515,8.73577 -4.76372,19.87927 -18.68359,15.26953 -5.89837,-6.02701 -12.20394,-4.02316 -15.08399,0.89453 v 12.27539 c 0.0333,0.063 0.0593,0.12655 0.0937,0.18945 8.71843,0.67227 1.73426,-19.36265 14.75586,-7.29492 -0.45215,2.14731 -0.73638,5.42293 -1.1582,9.07227 h 3.43164 c 0.56064,-4.26057 2.62212,-7.96462 8.16211,-9.96289 1.59882,5.73419 4.5396,8.62887 8.19922,9.96289 h 16.90429 c 4.79189,-0.63938 9.4717,-1.15167 13.28711,0 h 8.49414 c 0.24618,-2.6732 -1.08765,-7.62293 3.25391,-11.66602 11.9242,-19.52617 -17.44337,-11.67436 -20.5,0.51367 -5.33625,17.26594 -14.76665,-7.05686 -11.19922,-15.79687 -0.32498,-6.24955 -1.20066,-8.47111 -2.07422,-8.30664 z m -40.59765,1.875 c -0.38709,-0.005 -0.74386,0.0669 -1.05274,0.2207 v 6.71875 c 0.35756,0.88364 0.79589,1.84715 1.36133,2.93555 9.97627,-2.79522 3.46683,-9.82598 -0.30859,-9.875 z"
         transform="matrix(0.26458333,0,0,0.26458333,-26.977097,10.118004)" />
      <path
         id="path1150"
         style="fill:#413c2e;stroke-width:0.999999;fill-opacity:1"
         d="m 228.42578,109.19727 c -0.21728,1.64935 -0.15489,3.4487 0.30469,5.40429 2.60373,13.50293 -13.39975,-1.16911 -9.35938,6.02149 8.73023,2.27142 22.79198,25.63522 4.625,21.62695 9.06763,-6.98891 -7.55701,-13.79762 -9.9414,-14.72656 2.20049,7.40204 9.49445,25.62731 17.79883,21.40234 13.62771,14.18579 -0.96836,33.81984 5.13867,48.23047 -9.69834,0.47514 -9.46973,20.64531 -20.26758,15.94531 -4.12354,-19.34461 -10.61875,6.27828 -4.05078,12.36719 -0.0642,5.53352 8.62826,-12.22484 14.38281,-10.45508 -4.20452,-9.63609 31.44863,-15.29145 17.16406,-1.00781 -19.28251,11.87812 5.43864,5.27324 9.27539,-3.31055 13.4061,3.63912 2.26047,-8.08647 -3.9414,-7.84961 -16.03811,-13.585 0.32316,-30.8275 -7.95899,-48.625 2.50566,-12.51935 -14.33403,-41.92455 6.3125,-42.86718 0.25688,-0.75586 0.45015,-1.46847 0.61133,-2.15625 z m 47.39258,0 c -1.31728,11.55176 3.82968,28.25657 2.25976,39.12695 -3.25242,10.8718 11.62248,41.60582 -7.77734,34.35547 4.95757,2.56244 14.49891,16.67101 15.69727,26.10937 l 1.77539,1.79102 c 5.7327,-6.24635 1.00314,-25.14803 -4.81446,-33.63477 16.10269,7.80433 3.9844,-2.32811 1.47852,-11.39843 -8.19407,-11.5796 18.28535,-12.1864 8.30469,-16.9629 -10.31719,-5.74195 -7.82676,-24.96447 -9.30664,-39.38671 z m -5.51758,73.48242 c -0.36012,-0.18614 -0.70108,-0.32096 -1.00781,-0.37891 0.35475,0.14773 0.67368,0.25403 1.00781,0.37891 z m 43.88281,-73.48242 c -0.15382,5.03217 -12.85605,6.44534 -9.14062,15.08398 3.51536,-1.38534 15.46207,-11.87637 9.16992,2.25 1.14588,-0.73712 13.10675,1.8911 8.04688,13.94336 -3.06283,15.11154 -4.1231,2.69151 -6.49415,-5.23828 -19.05198,4.11004 -1.62547,25.17065 -2.67578,40.62305 3.13545,13.86877 -8.47642,1.97745 -7.05664,9.66992 12.4977,5.43529 9.2334,25.39098 -2.33008,32.14453 -11.7694,-11.7391 -6.0173,-2.49007 -3.45703,7.53125 7.35774,20.43521 5.93258,44.7878 6.13282,67.13476 -11.00168,1.85142 2.42734,-29.65966 -11.80664,-34.90625 -9.06169,5.09701 6.27448,27.30241 5.1289,39.09375 10.27029,22.80432 13.69635,48.46133 13.34961,73.52735 4.97663,14.68569 -11.30999,-1.18723 -8,11.44531 13.28386,-5.59287 6.12934,21.62783 4.72266,6.69141 -14.6546,5.0886 -10.15946,-28.70064 -24.375,-14.87891 -4.79098,-25.35768 -13.01042,21.28531 -3.21875,14.11914 10.00571,-18.36499 6.13109,5.79902 8.48047,13.29492 1.43462,3.31457 3.00982,-18.59603 13.55468,-6.82617 1.22343,10.89113 6.0932,1.33378 7.97657,9.31055 -11.30496,8.59941 5.975,22.15145 9.58398,36.3164 -4.70578,-8.15161 -22.94381,1.33795 -20.5957,5.37305 22.0671,-9.57324 6.43136,18.1325 14.40625,28.81836 -4.75044,4.47513 -4.23937,5.82827 -1.79883,6.52344 h 11.26172 c -0.96041,-6.45802 -0.27345,-13.26972 3.64844,-18.65039 1.93369,-19.4103 2.16243,-38.93113 2.7207,-58.41407 0.42318,-14.70723 -3.25253,-43.47059 20.75,-35.03125 19.62548,3.97418 40.00358,4.10066 59.94531,3.02735 20.894,-8.9969 43.64772,-13.4318 64.60156,-22.47266 -3.93474,-7.24033 -37.95661,8.35478 -53.92968,3.63086 -20.56608,1.49443 -40.56196,-2.89756 -60.78321,-5.2168 -14.63345,-6.99133 -44.74558,12.07347 -39.28515,-14.84961 -3.15034,-18.49676 29.64216,1.31159 13.44336,-11.40624 -5.554,-13.4305 -25.29817,5.79997 -20.59766,-12.00391 -11.10689,13.2096 -5.0608,-21.2041 2.00977,-4.93945 14.87023,4.61916 4.25088,-16.99742 7.95507,-23.16602 5.32772,-19.90303 -13.65542,15.92393 -13.82422,6.05078 -1.18484,-21.92071 2.63023,-43.83766 4.20508,-65.88672 6.26277,-2.48874 -0.73765,25.07496 6.38672,31.93946 -9.77922,-7.41958 5.62864,9.14017 -5.24804,6.60156 15.43044,4.18439 13.2596,-20.4505 22.70507,-27.35547 -2.17101,-10.97211 29.58384,-16.90579 7.08594,-14.29688 -8.23922,-7.17233 -18.99813,-3.73786 -21.67773,-15.1582 -5.2302,-17.97902 -1.70438,12.46534 -6.24024,7.39649 2.32873,-18.48116 2.97256,-38.08754 2.1211,-57.43164 12.32745,15.79696 2.68758,48.94687 29.88671,51.17578 15.24234,-16.47598 -6.60087,-38.58459 -14.30273,-54.59375 13.48052,-2.25397 2.41925,-4.37323 -2.6543,-9.85938 -8.53911,-13.78623 13.38464,-8.77241 4.95899,-22.26172 0.81011,-2.82839 0.70306,-5.47899 -0.0449,-7.87304 z M 262.74414,127.5 c -7.62093,-0.19512 -4.72007,22.73337 -4.86133,29.37305 10.5021,3.53893 1.02008,-21.65328 7.57813,-28.52539 -1.02861,-0.55875 -1.92843,-0.82748 -2.7168,-0.84766 z m 5.80859,28.39258 c -2.06635,-0.0594 -4.17488,2.20644 -4.66601,9.14453 13.55157,2.36858 9.21199,-9.01396 4.66601,-9.14453 z m 12.46485,53.70117 c -2.86736,-0.34148 -0.12501,20.45513 6.37109,25.76953 6.82674,8.46223 7.17303,-2.12885 2.52344,-6.29687 12.06638,-2.24081 -5.8134,-3.77826 -4.08789,-10.72852 -2.27069,-6.16741 -3.85085,-8.63031 -4.80664,-8.74414 z m -8.13281,15.61523 c -3.67164,0.0588 -7.33109,4.72866 -5.32227,13.83008 5.25279,-8.97107 6.93432,-2.62012 8.41406,13.86719 4.63941,-1.64031 1.92036,-9.96045 2.30078,-13.86133 1.96182,-9.34321 -1.72094,-13.89468 -5.39257,-13.83594 z m 56.91406,1.35743 c 3.48065,-0.14967 8.39666,6.21661 1.17773,8.57812 -1.90343,2.985 -5.09686,1.79005 -3.51562,-1.4668 -0.91464,-5.16585 0.51469,-7.03293 2.33789,-7.11132 z m -113.94531,9.77148 c -2.37709,0.22323 1.19075,19.05277 2.55468,24.58594 2.06629,19.16131 -9.36293,38.23094 0.77539,56.03515 -0.9251,13.24989 11.47846,39.61965 -2.45312,42.88868 9.24838,8.29655 -0.83471,24.36771 9.66992,32.54687 3.64489,7.09761 4.07212,-4.86732 2.02734,-6.52344 -6.36625,-16.68514 5.43407,-37.17203 -3.16601,-50.03515 5.08004,-14.68661 -1.28186,-25.48522 -3.28711,-39.29688 0.79618,-17.60956 4.6653,-35.51605 -1.45899,-53.04101 -2.41506,-5.24219 -3.86974,-7.23457 -4.6621,-7.16016 z m -10.0254,26.39649 c -6.64864,-0.0311 -0.90705,22.35411 -4.10156,30.1621 l 2.08203,0.0684 1.86524,-0.80468 c 1.03363,-6.99381 2.48611,-20.09778 0.83789,-29.35157 -0.24097,-0.0489 -0.46912,-0.0732 -0.6836,-0.0742 z m 33.9043,5.25976 c -0.75702,0.13575 1.3363,9.74859 -2.60742,10.38281 -3.16361,4.86529 6.43955,9.86689 -6.50977,7.38086 -11.2178,13.62322 9.11144,32.01996 2.36133,49.4375 4.37803,-5.13353 3.37098,-9.45052 11.83203,-1.59375 3.86151,-2.76355 6.57479,-20.34726 -6.2539,-15.83398 2.81396,-3.84142 0.98076,-10.41153 -1.36524,-18.27539 8.95155,-2.06264 1.92562,-6.53429 3.10352,-13.83008 12.67759,-1.94414 5.45483,-4.64436 2.16992,-12.36719 -1.70198,-3.95518 -2.43424,-5.3539 -2.73047,-5.30078 z m 36.81055,4.19531 c -2.2847,0.13202 -1.65538,5.40636 4.69922,9.70508 4.48802,3.51673 6.92334,0.68693 1.95312,-3.06641 -2.86247,-4.94643 -5.28152,-6.71788 -6.65234,-6.63867 z m -78.34961,20.57032 c -0.24338,-0.063 -0.50196,0.13983 -0.76758,0.64257 v 9.64844 c 3.76754,7.16549 2.75863,-9.77564 0.76758,-10.29101 z m 50.92578,16.18164 c -1.32305,-0.009 -1.53504,1.48213 0.85742,5.67187 0.12719,0.90509 -0.22261,1.96221 0.65821,2.62891 16.41599,5.26567 2.45353,-8.27287 -1.51563,-8.30078 z m 30.83594,14.26953 c -2.55942,0.39276 -3.51416,14.49037 -0.52149,20.36718 3.9461,3.48087 4.52958,-11.43009 4.12305,-13.2207 -1.35315,-5.35702 -2.60005,-7.30017 -3.60156,-7.14648 z m 246.41601,5.96289 c -7.91667,0.20423 -22.52464,9.32226 -30.39453,12.98828 12.38982,-0.98687 23.50105,-7.05555 35.17578,-10.74805 -0.87262,-1.65571 -2.56458,-2.29742 -4.78125,-2.24023 z m -278.0957,17.24609 c -2.45892,0.32845 -5.2822,7.01641 0.36719,12.5586 2.76967,1.29161 3.51294,-3.55193 1.75781,-4.66016 0.69538,-6.0025 -0.64965,-8.09551 -2.125,-7.89844 z m 47.70508,1.03516 c -2.11782,-0.10083 3.60668,20.70957 6.36328,25.42383 12.44198,2.63421 -3.28112,-14.83725 -2.50195,-19.60743 -2.05985,-4.11954 -3.26834,-5.78817 -3.86133,-5.8164 z m -47.98633,18.6875 c -3.8266,-0.004 -7.82529,2.56681 -0.51758,7.72656 7.9987,-5.1443 4.34418,-7.7227 0.51758,-7.72656 z m -45.30859,15.49219 c -3.22769,0.25532 -2.72563,12.71949 3.59961,16.75976 5.42086,5.40858 3.17693,-8.39406 1.77734,-10.21484 -2.28035,-4.87579 -4.11395,-6.64483 -5.37695,-6.54492 z m 44.16992,12.15039 c -1.7066,0.0242 -4.00156,2.01696 -6.41016,7.80859 11.28568,4.92084 10.77148,-7.87056 6.41016,-7.80859 z m 22.41992,3.27929 c -0.54959,0.0431 -0.9039,1.0776 -0.9043,3.54297 -6.29789,5.45847 -6.66839,10.85246 0.16602,18.97266 -6.53093,18.95093 25.05279,15.59347 20.30469,31.92969 20.06842,-18.00824 -26.52718,-13.9064 -13.94141,-34.67188 2.8372,-1.51037 -3.24343,-19.96024 -5.625,-19.77344 z m -39.44336,4.31641 c -1.83446,-0.493 -2.73006,19.03736 -2.97461,25.51367 3.67954,10.82952 7.69314,-13.45087 5.13281,-17.12109 -0.83111,-5.83911 -1.54671,-8.22825 -2.1582,-8.39258 z m 18.89258,9.6875 c -5.28451,5.0699 1.71002,30.80081 3.68359,43.4668 3.3471,0.70987 11.22417,1.44762 11.30078,-3.80664 -14.83322,-6.60325 -5.8922,-27.16311 -14.98437,-39.66016 z m 74.79687,11.19922 c 2.06576,0.11959 4.22981,3.10484 2.84375,9.62695 1.25577,3.12529 -3.69281,1.31382 -4.17578,0.0391 -3.22471,-6.25511 -1.00916,-9.80155 1.33203,-9.66601 z m -83.87109,37.76172 c -1.33395,0.0539 -3.5508,13.11257 -0.23828,19.7207 l -0.0762,0.48242 c 0.0295,0.004 0.0508,0.006 0.0801,0.01 h 7.89453 c 2.49936,-1.34586 -2.79074,-5.58266 -6.99024,-10.39844 0.36145,-7.17626 -0.0636,-9.83897 -0.66992,-9.81445 z m 24.89258,0.75781 c -8.71634,-0.31573 -13.89612,16.97792 1.47265,17.4043 0.39448,2.38756 2.5868,0.32348 2.4668,-0.77735 -9.15338,-7.61548 1.466,-5.71551 3.83985,-11.46289 -2.62149,-3.60635 -5.33873,-5.07566 -7.7793,-5.16406 z m 36.71094,0.39258 c -3.80104,0.18869 -12.48491,6.20363 -9.67579,13.93945 4.12666,1.09039 5.07302,-5.40168 7.70704,-7.10156 4.77173,-4.96707 4.24937,-6.95111 1.96875,-6.83789 z m -71.53711,8.07617 c -2.63991,0.10064 -4.39025,3.17165 -0.16211,10.63867 l 0.90429,0.34766 h 3.23829 c 4.09773,-6.48909 -0.64316,-11.11355 -3.98047,-10.98633 z"
         transform="matrix(0.26458333,0,0,0.26458333,-26.977097,10.118004)" />
      <path
         id="path1148"
         style="fill:#433c37;stroke-width:0.999999"
         d="m 245.4707,109.19727 c 2.25713,0.97423 3.31129,0.82079 3.53125,0 z m 31.19141,0 c -0.7043,7.07449 -0.41516,16.32855 1.24805,20.22656 4.91704,14.76976 -6.00711,39.77979 8.16406,47.66211 0.64079,1.8553 2.44056,3.71289 4.59961,3.32031 -5.21914,-4.06777 -12.92225,-30.72047 6.01172,-29.42578 -17.4911,-3.43716 -13.31572,-27.2326 -13.39063,-41.7832 z m 42.00781,0 c -1.75915,3.04713 -5.91538,3.62383 -8.43554,8.7539 6.81571,-2.08307 7.45488,2.48371 4.26757,10.47071 12.91582,-9.12892 5.69072,14.94404 7.17969,21.66992 10.93838,16.07828 1.68779,49.52026 27.29492,52.06445 19.80255,2.84999 -4.92295,-20.88789 2.40235,-25.99805 -3.76906,-12.27301 -29.6016,-39.23138 -14.38868,-49.41211 2.65083,-3.17924 2.35129,-10.81683 0.64454,-17.54882 h -7.88868 c 1.82377,2.47266 4.01256,8.4953 3.34571,12.59375 -1.90762,9.90566 -4.51617,-4.84023 -5.02149,-6.54297 -0.52034,-3.0255 -0.62412,-4.95758 -0.45703,-6.05078 z m -83.71875,0.1289 c -17.77347,-0.0164 12.97614,34.97456 -9.61523,36.94141 15.44804,1.73852 13.26391,22.09123 12.75195,33.5957 6.92847,-1.16898 4.99647,-9.91716 4.17578,-14.68164 -5.86368,-18.41947 -3.39431,-37.19547 -7.3125,-55.85547 z m -21.23437,21.60547 c -2.34109,-0.10546 -2.28694,1.53261 4.45898,6.72656 17.4324,2.17749 0.69142,-6.49456 -4.45898,-6.72656 z m 101.48047,5.39453 c -4.89333,-0.147 -13.92993,13.50109 -5.1875,14.59766 -0.57998,17.58203 13.14035,27.31802 5.59765,45.01953 2.42884,0.34618 5.60414,-1.75413 3.34961,-4.18164 5.81671,-12.90566 -0.6644,-31.45789 -1.23242,-47.34766 0.66822,-5.86066 -0.61256,-8.03037 -2.52734,-8.08789 z m -45.9375,20.46289 c -1.94772,0.13653 -4.05579,2.1302 -4.87696,7.70508 12.67156,0.68257 9.16193,-8.00544 4.87696,-7.70508 z m -29.29883,29.67774 c -1.44074,-0.0847 -3.47926,7.29594 -3.41016,13.1582 -23.51764,14.03644 19.7605,-4.88873 13.0586,15.50781 0.28806,2.34626 3.04958,-0.27922 3.06054,-1.33593 15.72118,-6.65964 -10.54903,-9.43845 -11.32422,-19.76172 -0.0384,-5.43179 -0.63009,-7.524 -1.38476,-7.56836 z m 76.31445,19.06445 c -2.96996,-0.0919 -8.98042,10.52563 -12.03906,14.42187 -15.32611,-11.10705 5.87653,5.74684 -1.07227,11.28907 3.34194,20.5118 5.3807,42.19008 2.45313,62.94726 -10.42154,2.34487 1.53919,-28.78246 -10.23828,-35.98047 -2.10608,5.37301 -1.52056,34.7716 9.89453,44.36524 3.24338,18.508 7.36111,36.93151 8.59765,55.72461 0.39288,16.73533 0.0337,33.7348 -2.0664,50.24805 -9.25176,0.40388 2.57892,7.91513 3.54101,14.93164 5.18265,12.50415 2.69594,5.91933 7.37696,-2.27344 8.21831,2.8803 5.70798,25.08131 -9.16602,16.86719 0.36679,7.1128 -3.38336,30.3073 5.75586,40.75781 10.15692,-4.09183 1.30912,-16.21434 2.75977,-23.72656 2.31571,-18.24428 2.67543,2.93293 5.3789,9.40039 3.16688,-16.99488 2.75303,-34.35128 3.0625,-51.5586 4.09002,-14.61804 -7.40081,-37.98935 10.54883,-44.67383 21.33819,-2.44762 42.57889,6.42383 64.10547,3.2129 7.85917,-11.73714 22.72254,-14.98354 38.66797,-12.89649 16.3389,-1.70819 6.92707,-6.75535 -4.40821,-5.44336 -23.98956,2.24674 -47.77235,-0.93321 -71.47851,-4.375 -15.46184,-6.74487 -30.63106,5.80706 -43.34766,-1.66601 -0.79207,-14.77265 -26.39889,-36.38807 -9.17773,-47.95899 5.14599,14.27884 15.36848,-6.85374 7.61719,-11.30078 -0.91508,-19.52022 -13.35139,19.15324 -11.73243,-2.56445 1.22459,-23.34475 -0.71746,-50.69909 6.57032,-71.34766 0.46858,-6.10426 -0.25354,-8.35861 -1.60352,-8.40039 z m -103.12305,1.76953 c -2.6418,0.41286 -4.68757,9.83503 -0.17578,14.27344 -2.5044,1.10982 18.4879,-6.8157 3.58789,-7.93945 -0.88667,-4.84937 -2.21128,-6.52165 -3.41211,-6.33399 z m 117.1836,0.88672 c -0.98318,1.8e-4 -2.07023,0.14195 -3.26953,0.44922 -14.96974,10.93307 -4.51903,32.123 -4.20703,47.75781 8.29525,-0.13262 10.50999,-12.04561 6.17968,-17.60351 -0.66907,-2.65171 -6.2976,-23.1541 0.4375,-19.87696 6.88463,21.00207 15.60706,-10.72926 0.85938,-10.72656 z m -48.51758,5.04102 c -2.84565,-0.23922 0.49578,18.19244 6.10937,22.13086 14.82612,8.58321 -6.44883,-12.25555 -2.17773,-16.81055 -1.8529,-3.72271 -3.13486,-5.25333 -3.93164,-5.32031 z m -64.80859,26.68554 c -1.59816,0.0569 0.24964,16.46436 2.63281,23.06446 7.92507,0.32534 1.49811,-10.38146 1.00195,-14.05274 -1.85503,-6.5519 -3.0094,-9.03397 -3.63476,-9.01172 z m 3,44.5 c -2.16419,0.002 -6.90344,8.22644 -4.22657,14.80078 -3.36534,12.47308 8.81038,11.76198 7.03516,21.67969 10.6744,6.58942 -3.22098,-22.8058 -2.96484,-28.29687 1.71656,-5.93002 1.28986,-8.18461 0.15625,-8.1836 z m 11.93554,2.23242 c -2.63067,11.22486 -1.22736,31.79588 6.99024,42.7168 6.90393,5.21708 8.84193,-6.93245 8.71679,-11.18164 -19.05866,7.18581 -4.58669,-24.91639 -15.70703,-31.53516 z m 92.82227,29.7168 c -5.6513,0.28604 -14.37231,5.93553 -4.59375,9.81836 0.80701,2.49526 4.02299,0.81213 4.97461,-0.5918 5.91461,-7.10791 3.48582,-9.42227 -0.38086,-9.22656 z M 222.93945,330.625 c -1.58861,-0.0265 -0.24134,17.48312 0.66016,24.33984 1.16647,23.93405 5.76347,-9.29137 2.75586,-14.56445 -1.72325,-7.07007 -2.79438,-9.76502 -3.41602,-9.77539 z m 74.34375,18.40039 c -1.56305,-0.25955 0.55788,13.80397 3.79102,19.36914 8.67119,11.65247 2.0751,-7.18402 -0.10938,-11.11719 -1.89373,-5.85563 -3.07001,-8.15038 -3.68164,-8.25195 z m -9.01758,22.69336 c -3.56153,0.24994 -7.30181,2.64613 -9.66796,7.17969 -1.38271,13.68007 2.69268,7.79072 8.79687,0.59961 0.17161,8.2154 16.5593,10.57344 20.06055,20.18164 4.6705,-3.7372 -4.80905,-13.90309 -9.64258,-18.26172 -0.68422,-6.79471 -4.96776,-10.02057 -9.54688,-9.69922 z m -63.41015,3.50586 c -3.05314,0.0707 -6.6631,11.85222 1.57617,16.16992 5.67687,6.6621 1.69325,-5.51452 1.07617,-7.20703 0.007,-6.60777 -1.26455,-8.99504 -2.65234,-8.96289 z m -25.42578,4.48047 c -1.24665,0.0586 -1.10708,2.82343 2.4707,10.79687 12.95435,6.57614 0.71516,-10.94673 -2.4707,-10.79687 z m 70.55469,22.36914 c -8.30123,0.72706 -0.51493,24.01857 3.28515,32.3164 1.96773,-10.88545 0.64995,-21.84807 -2.43164,-32.31445 -0.30194,-0.0248 -0.58573,-0.0254 -0.85351,-0.002 z m -39.32227,6.71484 c -1.35216,0.19371 -4.20827,11.3259 -3.24414,17.10547 1.89,14.28117 4.24473,-6.57291 3.65625,-9.05859 0.50734,-5.96198 0.20251,-8.13493 -0.41211,-8.04688 z m 24.42187,37.56446 c -1.65489,-0.0487 -2.96361,1.19236 -2.98828,4.74218 l 0.95313,2.2793 0.8457,0.86719 c 14.22342,4.0269 6.15415,-7.7425 1.18945,-7.88867 z m 6.88868,16.59375 c -5.39235,0.0379 -11.21906,7.71595 -2.97266,12.32226 11.57347,6.98801 0.22787,-7.41861 8.69531,-6.63281 -0.90945,-4.14555 -3.27159,-5.70667 -5.72265,-5.68945 z m -32.12696,3.76757 c -1.34812,-0.0128 -2.52246,2.4215 -1.94531,9.07227 l 1.59375,2.21289 1.22852,0.98242 c 4.09902,-5.42669 1.36991,-12.24618 -0.87696,-12.26758 z"
         transform="matrix(0.26458333,0,0,0.26458333,-26.977097,10.118004)" />
      <path
         id="path1146"
         style="fill:#342a21;stroke-width:0.999999;fill-opacity:1"
         d="m 276.81836,109.19727 c 1.58112,21.00862 5.01094,42.47377 2.1582,63.59765 11.15495,-9.65597 6.18265,-36.63635 2.29883,-52.53125 0.59133,-2.24128 0.80686,-6.7847 0.63867,-11.0664 z m 42.28516,0 c 0.0293,11.08334 4.72935,26.8355 4.25195,37.11718 6.63624,17.79107 0.80482,48.84536 23.75586,54.81446 17.7712,6.32086 1.64782,-16.3207 0.0918,-22.11329 6.73053,-4.98187 2.25055,-11.13599 -4.89843,-17.05664 -11.24589,-15.02583 -10.79015,-35.39313 -16.15235,-52.76171 z m 12.01171,0 c 1.10729,5.19876 2.84037,10.89368 4.08789,13.19726 6.66963,3.68479 2.57998,-6.12286 0.44532,-13.19726 z m -98.34375,6.22656 c -1.62865,0.44055 -1.28171,14.43093 2.33594,20.9707 4.86987,13.24673 1.65132,-8.76729 0.98828,-11.20117 -1.43515,-7.37204 -2.58392,-9.96978 -3.32422,-9.76953 z m 81.32618,24.43359 c -11.91957,-0.61574 1.87097,23.7963 -0.57032,33.53711 16.51975,5.27983 -2.30998,-25.68869 3.3086,-33.06836 -1.0356,-0.27528 -1.94365,-0.4277 -2.73828,-0.46875 z m -73.81641,23.26563 c -1.5806,0.13614 -4.10699,10.72327 -1.63867,15.85547 5.18849,2.7045 3.89272,-5.81667 2.65039,-8.07032 0.2295,-5.75042 -0.29327,-7.84704 -1.01172,-7.78515 z m 90.79297,49.49414 c -18.51424,0.22073 -7.23632,30.71084 -7.21289,43.86133 6.2373,-4.57691 7.24574,-7.59109 2.37305,-12.36524 3.17478,-12.77043 -9.04821,-24.80584 6.72656,-31.42187 -0.66062,-0.0575 -1.28949,-0.0813 -1.88672,-0.0742 z m -20.3457,0.45703 c -0.31757,-0.004 -0.66929,0.0992 -1.0586,0.32031 -6.92554,29.8068 -0.42933,60.82254 -2.93359,91.10352 l 0.55664,3.00781 c 7.20087,-16.19833 1.20024,-43.58796 5.84961,-63.89453 -0.58469,-6.51764 2.34941,-30.48211 -2.41406,-30.53711 z m -29.01758,1.77344 c -1.73555,-0.25832 2.22914,16.86538 6.86914,20.29882 10.00362,6.25005 -6.259,-12.452 -3.96094,-15.3125 -1.49004,-3.47998 -2.42225,-4.914 -2.9082,-4.98632 z m 15.34375,47.98632 c -4.67698,4.1304 1.64692,24.02929 3.03711,33.97461 -0.86366,-5.30453 3.96517,-23.22526 -3.03711,-33.97461 z m -78.19922,23.5586 c -1.50828,0.33972 -5.75251,24.65057 5.74414,25.45312 0.0451,-5.5881 -6.33279,-9.98545 -5.83203,-16.04492 0.78921,-6.9725 0.59065,-9.52144 0.0879,-9.4082 z m 102.74023,0.91211 c -2.09465,0.11569 -5.17261,5.99985 -2.56836,11.58984 -3.54162,12.97044 14.49752,-9.23636 3.83789,-4.25781 0.89057,-5.39503 -0.0127,-7.40145 -1.26953,-7.33203 z m 1.28321,28.20312 c -2.00391,0.003 -3.71923,2.29362 -2.66211,9.15039 11.36384,-0.8235 6.48774,-9.15617 2.66211,-9.15039 z m -12.65625,3.45703 c -0.64561,0.0745 -0.93286,1.38581 -0.67578,4.42188 1.64352,7.40228 5.68688,43.1472 6.13476,28.29687 2.25699,-7.60418 10.93211,41.81561 -0.16992,23.03321 -1.04385,3.43872 -4.9765,38.44548 1.73437,53.29687 l 0.95508,2.23047 0.71875,0.30664 c -2.01491,-10.34487 7.74446,-10.1142 5.55664,-17.7168 -4.96586,4.43286 -6.03563,-0.48704 -5.09961,-8.0625 2.7575,-16.79761 5.16684,14.57888 11.53907,-2.58203 1.77586,-15.38124 -3.92283,-46.96476 21.32226,-34.86328 21.39712,2.93583 0.62691,-8.48362 -9.1582,-6.85351 -14.69227,1.8545 -10.90818,-6.00861 1.64258,-5.88086 23.83263,7.5465 48.95661,5.85646 73.21679,1.9414 -14.35986,-2.46969 -35.24803,-3.94214 -52.02343,-6.32226 -13.57494,-8.08555 -32.69483,9.39325 -42.04883,-2.23828 -1.30424,-6.4288 -10.84689,-29.33081 -13.64453,-29.00782 z m -25.62696,53.73047 c -1.10689,0.0191 -2.05544,0.45321 -2.74609,1.43164 2.78063,0.35622 10.2964,10.08102 15.21289,15.1211 10.79437,3.53091 -4.71853,-16.68678 -12.4668,-16.55274 z m -14.67578,37.31836 c -1.53651,-0.50348 -1.75971,14.3968 1.55274,20.38086 5.1293,2.77187 0.32985,-9.31156 0.7207,-11.25586 -0.87012,-6.37177 -1.67219,-8.92798 -2.27344,-9.125 z m 47.6582,39.56836 c -3.49091,0.40761 -6.20654,22.75198 1.06446,27.39649 9.31147,-0.87277 2.18557,-13.62643 2.34375,-19.02344 -0.9948,-6.20672 -2.24457,-8.50892 -3.40821,-8.37305 z"
         transform="matrix(0.26458333,0,0,0.26458333,-26.977097,10.118004)" />
    </g>
  </g>
</svg>
